<svg xmlns="http://www.w3.org/2000/svg" width="12" height="13" fill="none"><path fill="#97B4A5" d="M10.314 7.798c.447 0 .876.155 1.192.43.316.274.494.645.494 1.033v.597c0 .372-.134.736-.384 1.039C10.456 12.304 8.563 13 5.998 13c-2.567 0-4.459-.697-5.615-2.104A1.631 1.631 0 0 1 0 9.86v-.6c0-.387.178-.76.494-1.033a1.828 1.828 0 0 1 1.193-.429h8.627ZM5.997 0c.493 0 .98.084 1.436.247.455.164.868.403 1.216.705.348.302.625.66.813 1.055.189.394.286.817.286 1.244 0 .427-.097.85-.286 1.244a3.263 3.263 0 0 1-.813 1.054 3.833 3.833 0 0 1-1.216.705 4.256 4.256 0 0 1-1.436.247c-.994 0-1.948-.342-2.651-.952-.704-.61-1.099-1.436-1.099-2.298 0-.862.395-1.69 1.099-2.299C4.049.342 5.003 0 5.997 0Z"/></svg>