<svg xmlns="http://www.w3.org/2000/svg" width="20" height="20" fill="none"><path fill="url(#a)" d="M19.988 15.108A5.626 5.626 0 0 1 14.4 20C6.46 20 0 13.54 0 5.6A5.626 5.626 0 0 1 4.892.012a1.6 1.6 0 0 1 1.662.952l2.112 4.715v.012A1.6 1.6 0 0 1 8.54 7.2a1.094 1.094 0 0 1-.057.077L6.4 9.745c.75 1.522 2.341 3.1 3.883 3.85l2.434-2.07a1.6 1.6 0 0 1 1.592-.196l.013.006 4.711 2.11a1.6 1.6 0 0 1 .955 1.663Z"/><defs><linearGradient id="a" x1="20" x2="-2.416" y1="0" y2="3.229" gradientUnits="userSpaceOnUse"><stop stop-color="#04ACBB"/><stop offset="1" stop-color="#00BD78"/></linearGradient></defs></svg>