<svg xmlns="http://www.w3.org/2000/svg" width="14" height="13" fill="none"><path fill="#97B4A5" d="M4.182 6.5c-.731.022-1.33.3-1.794.836H1.48c-.37 0-.681-.088-.934-.265-.253-.176-.38-.434-.38-.773 0-1.537.28-2.305.84-2.305.027 0 .126.046.295.137.17.091.39.184.66.277.27.094.54.14.806.14.302 0 .602-.05.9-.15A2.805 2.805 0 0 0 4.182 6.5Zm7.251 4.159c0 .522-.164.935-.494 1.237-.33.303-.767.454-1.313.454H3.708c-.546 0-.984-.151-1.314-.454-.33-.302-.494-.715-.494-1.237 0-.23.008-.456.024-.676a6.423 6.423 0 0 1 .274-1.42c.072-.217.17-.43.291-.636.122-.207.262-.383.42-.53.158-.145.35-.262.579-.349a2.1 2.1 0 0 1 .755-.13c.045 0 .142.047.29.14.15.094.315.198.495.314.18.115.422.22.725.313a3.077 3.077 0 0 0 1.828 0c.302-.094.544-.198.724-.313.18-.116.346-.22.495-.314.148-.093.246-.14.29-.14a2.1 2.1 0 0 1 .756.13c.227.087.42.204.579.35.157.146.297.322.42.529.121.206.218.419.29.636a6.423 6.423 0 0 1 .274 1.42c.017.22.024.445.024.676ZM4.5 2.321c0 .462-.17.856-.508 1.182-.338.327-.747.49-1.225.49a1.7 1.7 0 0 1-1.226-.49 1.582 1.582 0 0 1-.508-1.182c0-.461.17-.855.508-1.181A1.7 1.7 0 0 1 2.767.65c.478 0 .887.163 1.225.49.339.326.508.72.508 1.181ZM9.267 4.83a2.37 2.37 0 0 1-.762 1.772c-.508.49-1.12.735-1.838.735S5.337 7.09 4.828 6.6a2.373 2.373 0 0 1-.761-1.772c0-.693.254-1.283.761-1.773a2.552 2.552 0 0 1 1.839-.735c.717 0 1.33.245 1.838.735s.762 1.08.762 1.773Zm3.9 1.469c0 .34-.127.597-.38.773-.252.177-.564.265-.934.265h-.907C10.48 6.8 9.883 6.522 9.152 6.5a2.805 2.805 0 0 0 .514-2.102c.298.1.598.15.9.15.267 0 .536-.047.806-.14.271-.094.491-.187.66-.278.17-.091.268-.137.295-.137.56 0 .84.768.84 2.305ZM12.3 2.32c0 .462-.17.856-.508 1.182-.338.327-.747.49-1.225.49a1.7 1.7 0 0 1-1.226-.49 1.582 1.582 0 0 1-.508-1.182c0-.461.17-.855.508-1.181a1.7 1.7 0 0 1 1.226-.49c.478 0 .887.163 1.225.49.339.326.508.72.508 1.181Z"/></svg>