<svg width="35" height="35" viewBox="0 0 35 35" fill="none" xmlns="http://www.w3.org/2000/svg">
<g clip-path="url(#clip0_308_87)">
<path d="M0.00439453 6.5625C0.00439453 5.40218 0.465331 4.28938 1.2858 3.46891C2.10627 2.64844 3.21907 2.1875 4.37939 2.1875H30.6294C31.7897 2.1875 32.9025 2.64844 33.723 3.46891C34.5435 4.28938 35.0044 5.40218 35.0044 6.5625V28.4375C35.0044 29.5978 34.5435 30.7106 33.723 31.5311C32.9025 32.3516 31.7897 32.8125 30.6294 32.8125H4.37939C3.21907 32.8125 2.10627 32.3516 1.2858 31.5311C0.465331 30.7106 0.00439453 29.5978 0.00439453 28.4375V6.5625ZM2.19189 26.25V28.4375C2.19189 29.0177 2.42236 29.5741 2.8326 29.9843C3.24283 30.3945 3.79923 30.625 4.37939 30.625H30.6294C31.2096 30.625 31.766 30.3945 32.1762 29.9843C32.5864 29.5741 32.8169 29.0177 32.8169 28.4375V20.7812L24.5547 16.5222C24.3496 16.4194 24.1173 16.3838 23.8908 16.4203C23.6643 16.4568 23.455 16.5636 23.2925 16.7256L15.1769 24.8412L9.35814 20.965C9.14806 20.8251 8.89606 20.7622 8.64489 20.7869C8.39371 20.8117 8.15881 20.9225 7.98002 21.1006L2.19189 26.25ZM13.1294 12.0312C13.1294 11.161 12.7837 10.3264 12.1683 9.71106C11.553 9.0957 10.7184 8.75 9.84814 8.75C8.9779 8.75 8.1433 9.0957 7.52795 9.71106C6.9126 10.3264 6.56689 11.161 6.56689 12.0312C6.56689 12.9015 6.9126 13.7361 7.52795 14.3514C8.1433 14.9668 8.9779 15.3125 9.84814 15.3125C10.7184 15.3125 11.553 14.9668 12.1683 14.3514C12.7837 13.7361 13.1294 12.9015 13.1294 12.0312Z" fill="#8BA798"/>
</g>
<defs>
<clipPath id="clip0_308_87">
<rect width="35" height="35" fill="white"/>
</clipPath>
</defs>
</svg>
