<svg width="641" height="658" viewBox="0 0 641 658" fill="none" xmlns="http://www.w3.org/2000/svg">
<rect width="641" height="658" fill="#FAFAFA"/>
<path d="M596 499.64H46V499.915H596V499.64Z" fill="#E6E6E6"/>
<path d="M183.302 516.283H146.87V516.558H183.302V516.283Z" fill="#E6E6E6"/>
<path d="M135.342 516.283H114.233V516.558H135.342V516.283Z" fill="#E6E6E6"/>
<path d="M277.605 520.331H256.496V520.606H277.605V520.331Z" fill="#E6E6E6"/>
<path d="M387.671 526.469H340.162V526.744H387.671V526.469Z" fill="#E6E6E6"/>
<path d="M330.372 526.469H323.409V526.744H330.372V526.469Z" fill="#E6E6E6"/>
<path d="M544.685 520.331H441.637V520.606H544.685V520.331Z" fill="#E6E6E6"/>
<path d="M306.7 450.58H94.301C92.6371 450.578 91.0423 449.915 89.8668 448.737C88.6912 447.559 88.031 445.963 88.031 444.299V145.726C88.0455 144.072 88.7121 142.49 89.8861 141.324C91.0601 140.158 92.6466 139.503 94.301 139.5H306.7C308.366 139.5 309.963 140.162 311.141 141.34C312.319 142.518 312.981 144.115 312.981 145.781V444.299C312.981 445.965 312.319 447.563 311.141 448.741C309.963 449.919 308.366 450.58 306.7 450.58ZM94.301 139.72C92.71 139.723 91.1852 140.357 90.0612 141.483C88.9373 142.609 88.306 144.135 88.306 145.726V444.299C88.306 445.89 88.9373 447.416 90.0612 448.542C91.1852 449.668 92.71 450.303 94.301 450.305H306.7C308.292 450.303 309.818 449.669 310.944 448.543C312.069 447.417 312.703 445.891 312.706 444.299V145.726C312.703 144.134 312.069 142.608 310.944 141.482C309.818 140.357 308.292 139.723 306.7 139.72H94.301Z" fill="#E6E6E6"/>
<path d="M544.641 450.58H332.231C330.566 450.578 328.97 449.915 327.793 448.738C326.616 447.56 325.953 445.964 325.95 444.299V145.726C325.967 144.071 326.637 142.489 327.812 141.323C328.988 140.158 330.576 139.503 332.231 139.5H544.641C546.293 139.506 547.877 140.162 549.049 141.328C550.22 142.493 550.885 144.074 550.9 145.726V444.299C550.9 445.961 550.241 447.556 549.068 448.733C547.895 449.91 546.303 450.575 544.641 450.58ZM332.231 139.72C330.639 139.723 329.113 140.357 327.987 141.482C326.862 142.608 326.228 144.134 326.225 145.726V444.299C326.228 445.891 326.862 447.417 327.987 448.543C329.113 449.669 330.639 450.303 332.231 450.305H544.641C546.233 450.303 547.759 449.669 548.885 448.543C550.01 447.417 550.644 445.891 550.647 444.299V145.726C550.644 144.134 550.01 142.608 548.885 141.482C547.759 140.357 546.233 139.723 544.641 139.72H332.231Z" fill="#E6E6E6"/>
<path d="M340.14 405.678H315.951V501.631H340.14V405.678Z" fill="#E0E0E0"/>
<path d="M335.542 501.632H340.14V488.564H330.724L335.542 501.632Z" fill="#FAFAFA"/>
<path d="M234.144 405.678H209.955V501.631H234.144V405.678Z" fill="#E0E0E0"/>
<path d="M340.14 405.678H230.14V493.612H340.14V405.678Z" fill="#E8EDEC"/>
<path d="M336.147 410.001V433.266H234.1V410.001H336.114M336.543 409.572H233.704V433.684H336.576V409.572H336.543Z" fill="#E0E0E0"/>
<path d="M234.727 501.632H230.14V488.564H239.545L234.727 501.632Z" fill="#FAFAFA"/>
<path d="M282.709 421.628C282.709 422.109 282.851 422.579 283.118 422.979C283.386 423.379 283.765 423.69 284.209 423.874C284.654 424.058 285.142 424.106 285.614 424.012C286.086 423.919 286.519 423.687 286.859 423.347C287.199 423.007 287.43 422.574 287.524 422.102C287.618 421.631 287.57 421.142 287.386 420.698C287.202 420.254 286.89 419.874 286.49 419.607C286.091 419.34 285.621 419.197 285.14 419.197C284.495 419.197 283.877 419.453 283.421 419.909C282.965 420.365 282.709 420.983 282.709 421.628Z" fill="#E6E6E6"/>
<path d="M336.147 438.007V461.272H234.1V438.007H336.114M336.543 437.589H233.704V461.701H336.576V437.6L336.543 437.589Z" fill="#BAC9C0"/>
<path d="M282.709 449.7C282.709 450.181 282.851 450.651 283.118 451.05C283.386 451.45 283.765 451.762 284.209 451.946C284.654 452.13 285.142 452.178 285.614 452.084C286.086 451.99 286.519 451.759 286.859 451.419C287.199 451.079 287.43 450.646 287.524 450.174C287.618 449.702 287.57 449.214 287.386 448.769C287.202 448.325 286.89 447.946 286.49 447.678C286.091 447.411 285.621 447.269 285.14 447.269C284.495 447.269 283.877 447.525 283.421 447.981C282.965 448.437 282.709 449.055 282.709 449.7Z" fill="#E6E6E6"/>
<path d="M336.147 466.024V489.3H234.1V466.024H336.114M336.543 465.595H233.704V489.718H336.576V465.595H336.543Z" fill="#BAC9C0"/>
<path d="M282.709 477.662C282.711 478.143 282.855 478.612 283.124 479.01C283.392 479.408 283.773 479.718 284.217 479.901C284.661 480.083 285.15 480.129 285.621 480.034C286.092 479.939 286.524 479.707 286.863 479.367C287.201 479.026 287.432 478.593 287.525 478.122C287.618 477.65 287.569 477.162 287.385 476.719C287.2 476.275 286.889 475.896 286.489 475.629C286.09 475.363 285.62 475.22 285.14 475.22C284.82 475.22 284.503 475.284 284.207 475.407C283.911 475.529 283.643 475.709 283.417 475.936C283.191 476.163 283.012 476.433 282.891 476.729C282.769 477.025 282.707 477.342 282.709 477.662Z" fill="#E6E6E6"/>
<path d="M219.371 349.952H195.182V501.642H219.371V349.952Z" fill="#E0E0E0"/>
<path d="M214.773 501.632H219.371V488.564H209.966L214.773 501.632Z" fill="#FAFAFA"/>
<path d="M128.973 349.952H104.784V501.642H128.973V349.952Z" fill="#BAC9C0"/>
<path d="M219.613 349.6H125.2V493.271H219.613V349.6Z" fill="#E8EDEC"/>
<path d="M215.301 354V386.527H129.028V354H215.301ZM215.807 353.505H128.5V387H215.785V353.516L215.807 353.505Z" fill="#BAC9C0"/>
<path d="M215.301 390.498V476.771H174.205V390.498H215.301ZM215.807 389.992H173.71V477.277H215.807V389.992Z" fill="#BAC9C0"/>
<path d="M170.124 390.498V476.771H129.028V390.498H170.124ZM170.619 389.992H128.5V477.277H170.597V389.992H170.619Z" fill="#BAC9C0"/>
<path d="M129.556 501.632H124.958V488.564H134.374L129.556 501.632Z" fill="#FAFAFA"/>
<path d="M169.728 370.28C169.726 370.763 169.867 371.237 170.134 371.64C170.401 372.043 170.782 372.357 171.228 372.544C171.674 372.73 172.165 372.78 172.64 372.687C173.114 372.594 173.55 372.363 173.893 372.022C174.235 371.681 174.469 371.245 174.564 370.771C174.659 370.297 174.612 369.806 174.427 369.359C174.243 368.912 173.93 368.53 173.528 368.261C173.126 367.992 172.653 367.849 172.17 367.849C171.524 367.849 170.905 368.105 170.447 368.56C169.99 369.016 169.731 369.634 169.728 370.28Z" fill="#E6E6E6"/>
<path d="M178.44 431.583C178.44 432.066 178.583 432.539 178.852 432.941C179.121 433.342 179.503 433.655 179.95 433.84C180.397 434.024 180.888 434.072 181.362 433.977C181.836 433.882 182.272 433.648 182.613 433.306C182.954 432.963 183.185 432.527 183.278 432.052C183.371 431.578 183.321 431.087 183.135 430.641C182.948 430.195 182.634 429.814 182.231 429.547C181.828 429.28 181.354 429.139 180.871 429.141C180.551 429.141 180.234 429.204 179.938 429.327C179.642 429.45 179.374 429.63 179.148 429.857C178.922 430.084 178.743 430.353 178.622 430.649C178.5 430.945 178.439 431.263 178.44 431.583Z" fill="#E6E6E6"/>
<path d="M161.027 431.583C161.029 432.063 161.173 432.532 161.442 432.93C161.71 433.329 162.091 433.639 162.535 433.821C162.98 434.003 163.468 434.05 163.939 433.955C164.41 433.86 164.842 433.627 165.181 433.287C165.52 432.946 165.75 432.513 165.843 432.042C165.936 431.571 165.887 431.082 165.703 430.639C165.518 430.195 165.207 429.816 164.807 429.55C164.408 429.283 163.938 429.141 163.458 429.141C163.138 429.141 162.821 429.204 162.525 429.327C162.229 429.45 161.961 429.63 161.735 429.857C161.509 430.084 161.33 430.353 161.209 430.649C161.087 430.945 161.025 431.263 161.027 431.583Z" fill="#E6E6E6"/>
<path d="M158.277 307.657H148.08C149.02 312.604 149.612 317.61 149.851 322.639C149.851 328.139 142.085 349.952 153.151 349.952C164.217 349.952 156.451 328.194 156.451 322.639C156.709 317.608 157.319 312.602 158.277 307.657Z" fill="#BAC9C0"/>
<path d="M119.48 329.965V336.565C119.492 340.103 120.902 343.493 123.404 345.995C125.906 348.497 129.296 349.907 132.834 349.919H139.434C142.972 349.907 146.362 348.497 148.864 345.995C151.366 343.493 152.776 340.103 152.788 336.565V329.965H119.48Z" fill="#DEDEDE"/>
<path d="M261.237 391.686C261.237 399.386 269.85 405.678 280.377 405.678H289.881C300.408 405.678 309.021 399.386 309.021 391.686H261.237Z" fill="#E0E0E0"/>
<path d="M513.07 380.4C507.306 385.108 499.342 393.721 492.06 405.843C487.198 413.917 484.272 422.343 482.985 433.541C482.985 420.891 483.062 407.306 483.106 394.48C484.569 391.18 487.913 383.568 490.311 377.562C498.308 357.509 501.311 352.57 508.494 335.278C518.097 312.178 527.931 284.832 525.115 287.021C519.373 291.476 497.373 332.671 494.997 338.567C488.521 354.302 484.517 370.943 483.129 387.902C483.129 375.802 483.216 364.802 483.26 356.266C483.414 328.425 483.887 319.438 484.118 316.666C485.009 315.258 486.054 313.619 486.67 312.739C491.84 305.259 493.831 298.901 498.693 287.747C505.601 271.962 511.541 243.923 509.803 245.331C502.565 251.227 496.867 263.877 489.365 280.014C481.863 296.151 484.008 305.424 482.523 319.196C482.215 321.902 481.973 332.11 481.797 346.245C479.861 331.175 476.209 321.253 469.554 312.233C461.37 301.134 453.451 293.643 447.643 289.727C441.835 285.811 457.675 313.069 465.242 324.927C471.985 335.531 478.2 344.87 481.742 354.077C481.555 373.25 481.467 397.516 481.467 420.077C479.729 409.803 476.891 398.726 473.107 390.157C468.553 379.861 461.557 364.065 455.98 358.708C454.649 357.421 461.81 388.144 466.408 396.306C471.006 404.468 474.383 412.179 477.276 416.81C477.947 417.91 480.191 422.057 481.467 424.455C481.467 452.032 481.621 476.364 481.863 484.647H483.051C482.974 482.513 482.952 468.477 482.985 449.909C485.856 439.833 492.412 428.327 497.824 417.833C503.72 406.47 518.834 375.725 513.07 380.4Z" fill="#CCE0D4"/>
<path d="M499.683 501.631H465.21L462.603 467.839H502.29L499.683 501.631Z" fill="#F0F0F0"/>
<path d="M504.854 471.777H460.029L458.753 460.37H506.141L504.854 471.777Z" fill="#F5F5F5"/>
<path d="M182.686 162.05H121.031V229.755H182.686V162.05Z" fill="#BAC9C0"/>
<path d="M189.363 162.05H125.673V229.755H189.363V162.05Z" fill="#F5F5F5"/>
<path d="M184.028 224.42V167.385H131.008V224.42H184.028Z" fill="white"/>
<path d="M171.169 210.582V181.201H143.856V210.582H171.169Z" fill="#F5F5F5"/>
<path d="M497.055 169.937H439.778V232.835H497.055V169.937Z" fill="#E0E0E0"/>
<path d="M503.259 169.937H444.101V232.835H503.259V169.937Z" fill="#F5F5F5"/>
<path d="M498.309 227.874V174.898H449.062V227.874H498.309Z" fill="white"/>
<path d="M473.68 216.753C482.167 216.753 489.047 209.873 489.047 201.386C489.047 192.899 482.167 186.019 473.68 186.019C465.193 186.019 458.313 192.899 458.313 201.386C458.313 209.873 465.193 216.753 473.68 216.753Z" fill="#F5F5F5"/>
<path d="M246.838 202.2H201.1V252.426H246.838V202.2Z" fill="#BAC9C0"/>
<path d="M251.689 202.42H204.444V252.646H251.689V202.42Z" fill="#F5F5F5"/>
<path d="M247.729 248.686V206.38H208.404V248.686H247.729Z" fill="white"/>
<path d="M228.072 216.83L217.314 235.464H238.83L228.072 216.83Z" fill="#F5F5F5"/>
<path d="M321 549.316C438.791 549.316 534.279 543.741 534.279 536.864C534.279 529.987 438.791 524.412 321 524.412C203.209 524.412 107.721 529.987 107.721 536.864C107.721 543.741 203.209 549.316 321 549.316Z" fill="#DEDEDE"/>
<path d="M430.175 258.773L419.263 254.373C419.263 254.373 404.864 280.63 400.739 281.961C395.129 283.765 383.513 288.781 376.627 289.661C375.692 290.761 374.163 294.182 374.306 295.425C383.557 298.516 403.885 294.413 408.241 291.179C418.152 283.842 430.175 258.773 430.175 258.773Z" fill="#E58A7B"/>
<path d="M433.53 252.8C435.565 260.313 424.543 275.427 424.543 275.427L410.1 267.331C410.1 267.331 412.806 261.116 416.106 254.791C421.397 244.572 431.209 244.231 433.53 252.8Z" fill="#00BD78"/>
<path opacity="0.2" d="M433.53 252.8C435.565 260.313 424.543 275.427 424.543 275.427L410.1 267.331C410.1 267.331 412.806 261.116 416.106 254.791C421.397 244.572 431.209 244.231 433.53 252.8Z" fill="black"/>
<path opacity="0.2" d="M415.831 270.565L421.518 273.755L422.519 256.298C419.208 258.839 416.876 266.495 415.831 270.565Z" fill="black"/>
<path d="M424.026 247.146C424.026 247.146 412.784 272.16 419.34 318.734H463.637C464.341 311.936 462.009 278.76 470.446 246.728C465.587 245.778 460.67 245.15 455.728 244.847C449.46 244.484 443.175 244.484 436.907 244.847C432.562 245.288 428.256 246.057 424.026 247.146Z" fill="#00BD78"/>
<path opacity="0.2" d="M424.026 247.146C424.026 247.146 412.784 272.16 419.34 318.734H463.637C464.341 311.936 462.009 278.76 470.446 246.728C465.587 245.778 460.67 245.15 455.728 244.847C449.46 244.484 443.175 244.484 436.907 244.847C432.562 245.288 428.256 246.057 424.026 247.146Z" fill="black"/>
<g style="mix-blend-mode:multiply">
<path d="M413.752 537.854C413.686 539.042 430.483 539.999 451.262 539.999C472.041 539.999 488.959 539.042 489.025 537.854C489.091 536.666 472.305 535.72 451.515 535.72C430.725 535.72 413.829 536.677 413.752 537.854Z" fill="#E8ECF1"/>
</g>
<path d="M443.321 506.639L435.464 509.68L442.232 527.164L450.088 524.122L443.321 506.639Z" fill="#E58A7B"/>
<path d="M478.355 529.395H470.072L467.036 510.222H475.319L478.355 529.395Z" fill="#E58A7B"/>
<path d="M469.5 528.438H478.806C478.967 528.438 479.123 528.496 479.246 528.601C479.369 528.705 479.451 528.85 479.477 529.01L480.676 536.369C480.701 536.553 480.686 536.741 480.633 536.919C480.579 537.098 480.487 537.263 480.364 537.402C480.241 537.542 480.089 537.654 479.919 537.73C479.749 537.806 479.564 537.844 479.378 537.843C476.133 537.788 474.571 537.59 470.479 537.59C467.96 537.59 462.779 537.854 459.281 537.854C455.783 537.854 455.552 534.422 456.993 534.103C463.461 532.706 465.969 530.803 468.125 528.955C468.505 528.621 468.994 528.437 469.5 528.438Z" fill="#263238"/>
<path d="M442 525.6L450.8 523.026C450.957 522.981 451.124 522.992 451.275 523.056C451.425 523.12 451.548 523.234 451.625 523.378L454.925 529.978C455.002 530.145 455.041 530.327 455.04 530.511C455.039 530.695 454.997 530.877 454.919 531.044C454.84 531.21 454.726 531.358 454.585 531.476C454.443 531.594 454.278 531.679 454.1 531.727C450.899 532.607 448.754 533.146 444.75 534.312C441.989 535.115 439.173 536.424 436.445 537.293C434.553 537.898 430.109 537.92 427.81 537.92C424.411 537.92 423.652 534.334 425.115 534.169C428.8 533.762 429.295 533.949 431.33 532.926C434.66 531.47 437.677 529.386 440.218 526.788C440.697 526.242 441.312 525.832 442 525.6Z" fill="#263238"/>
<path d="M378.013 289.617L368.905 285.8L365.154 295.898C368.887 296.467 372.685 296.467 376.418 295.898L378.013 289.617Z" fill="#E58A7B"/>
<path d="M362.129 285.536L361.887 292.246L365.154 295.876L368.905 285.778L362.129 285.536Z" fill="#E58A7B"/>
<path d="M444.398 508.123L436.517 511.166L440.008 520.207L447.889 517.164L444.398 508.123Z" fill="#CF6F64"/>
<path d="M475.319 510.222H467.036L468.609 520.111H476.892L475.319 510.222Z" fill="#CF6F64"/>
<path opacity="0.2" d="M417.932 306.139C418.097 308.13 418.284 310.165 418.526 312.255L451.46 301.563C456.603 300.039 461.073 296.807 464.132 292.4C464.264 289.463 464.429 286.372 464.682 283.149C464.792 281.587 464.924 279.981 465.067 278.353C465.21 276.725 465.408 274.921 465.617 273.183L417.932 306.139Z" fill="black"/>
<path d="M428.69 270.059L427.59 269.927C428.239 264.427 432.342 260.093 436.665 260.203V261.303C432.881 261.226 429.273 265.131 428.69 270.059Z" fill="white"/>
<path d="M434.553 280.212H434.366V279.112C438.15 279.255 441.703 275.306 442.286 270.389L443.386 270.521C442.803 275.9 438.832 280.212 434.553 280.212Z" fill="white"/>
<path d="M455.112 223.65C453.561 229.711 451.735 240.81 455.728 244.847C455.728 244.847 452.934 250.996 441.681 250.996C431.396 250.996 436.907 244.847 436.907 244.847C443.749 243.241 443.87 238.247 442.968 233.517L455.112 223.65Z" fill="#E58A7B"/>
<path d="M450.162 227.676L442.979 233.517C443.202 234.604 443.33 235.708 443.364 236.817C445.465 238.907 449.678 233.616 450.107 230.91C450.325 229.845 450.344 228.748 450.162 227.676Z" fill="#CF6F64"/>
<path d="M430.626 223.573C431.126 224.439 431.799 225.193 432.603 225.787C433.408 226.382 434.326 226.804 435.301 227.027C437.941 227.61 439.261 225.179 438.535 222.737C437.886 220.537 435.719 217.578 433.035 218.084C432.46 218.202 431.922 218.457 431.465 218.826C431.009 219.195 430.648 219.668 430.412 220.206C430.176 220.743 430.072 221.33 430.11 221.915C430.147 222.501 430.324 223.07 430.626 223.573Z" fill="#CF6F64"/>
<path d="M434.993 204.18C430.879 206.061 429.427 222.407 434.597 224.827C439.767 227.247 442.781 200.605 434.993 204.18Z" fill="#263238"/>
<path d="M456.366 214.531C455.376 222.737 455.266 227.566 450.866 231.768C449.502 233.162 447.78 234.153 445.889 234.63C443.998 235.107 442.012 235.053 440.15 234.472C438.288 233.892 436.623 232.808 435.338 231.341C434.054 229.874 433.199 228.08 432.87 226.158C431.539 218.788 433.376 206.611 441.604 203.344C443.333 202.581 445.234 202.295 447.111 202.515C448.987 202.735 450.771 203.452 452.277 204.593C453.783 205.735 454.956 207.258 455.675 209.005C456.394 210.753 456.632 212.66 456.366 214.531Z" fill="#E58A7B"/>
<path d="M442.847 208.426C448.941 206.875 453.418 205.819 451.812 210.89C449.689 217.666 447.137 224.222 450.558 224.519C452.648 224.706 461.888 220.79 460.711 216.819C459.688 213.365 464.011 212.419 464.781 210.67C467.63 204.334 459.479 205.17 460.931 201.32C462.383 197.47 454.331 191.266 449.931 194.357C442.77 199.351 430.483 199.274 436.94 191.057C441.571 185.194 433.31 186.393 433.31 186.393C433.31 186.393 438.304 189.352 429.9 193.928C421.012 198.812 429.163 211.935 442.847 208.426Z" fill="#263238"/>
<path d="M459.6 223.573C458.397 225.314 456.589 226.545 454.529 227.027C451.812 227.61 450.767 225.179 451.79 222.737C452.703 220.537 455.211 217.578 457.807 218.084C460.403 218.59 460.997 221.417 459.6 223.573Z" fill="#E58A7B"/>
<path d="M419.34 318.734C419.34 318.734 411.904 385.284 411.321 410.54C410.727 436.808 436.522 518.769 436.522 518.769L449.722 513.269C449.722 513.269 434.322 438.381 436.522 412.586C438.854 384.459 448.49 318.778 448.49 318.778L419.34 318.734Z" fill="#00BD78"/>
<path opacity="0.2" d="M437.82 337.005C431.891 349.303 435.884 373.624 439.096 388.034C440.317 377.859 441.769 366.815 443.144 356.596C443.012 340.888 441.791 328.755 437.82 337.005Z" fill="black"/>
<path d="M449.139 508.913C449.205 508.913 450.701 513.115 450.701 513.115L435.477 519.517L433.079 515.051L449.139 508.913Z" fill="#00BD78"/>
<path d="M435.059 318.734C435.059 318.734 440.746 382.028 444.508 405.733C448.644 431.704 464.858 518.197 464.858 518.197H480.027C480.027 518.197 470.941 433.805 469.225 408.087C467.355 380.191 463.637 318.734 463.637 318.734H435.059Z" fill="#00BD78"/>
<path d="M480.258 514.248C480.324 514.248 480.764 518.483 480.764 518.483H464.088L462.9 513.621L480.258 514.248Z" fill="#00BD78"/>
<path opacity="0.2" d="M474.45 509.232C474.415 509.232 474.382 509.22 474.356 509.198C474.329 509.176 474.312 509.145 474.307 509.111C474.219 508.341 466.024 432.111 464.484 409.011C462.812 383.953 459.446 328.37 459.413 327.809C459.411 327.791 459.414 327.773 459.42 327.755C459.425 327.738 459.435 327.722 459.447 327.709C459.46 327.695 459.475 327.685 459.492 327.677C459.508 327.67 459.527 327.666 459.545 327.666C459.581 327.666 459.616 327.68 459.642 327.704C459.669 327.729 459.685 327.762 459.688 327.798C459.688 328.359 463.087 383.898 464.759 409C466.299 432.1 474.494 508.275 474.571 509.1C474.574 509.118 474.573 509.137 474.569 509.155C474.564 509.173 474.556 509.189 474.545 509.204C474.533 509.218 474.519 509.23 474.502 509.239C474.486 509.248 474.468 509.253 474.45 509.254V509.232Z" fill="black"/>
<path d="M443.782 216.819C443.782 217.49 443.364 218.029 442.924 218.029C442.484 218.029 442.165 217.49 442.209 216.819C442.253 216.148 442.627 215.609 443.067 215.609C443.507 215.609 443.826 216.159 443.782 216.819Z" fill="#263238"/>
<path d="M436.236 216.819C436.236 217.49 435.807 218.029 435.378 218.029C434.949 218.029 434.619 217.49 434.652 216.819C434.685 216.148 435.081 215.609 435.521 215.609C435.961 215.609 436.28 216.159 436.236 216.819Z" fill="#263238"/>
<path d="M438.612 217.16C437.694 219.209 436.51 221.128 435.092 222.869C436.192 223.969 438.249 223.463 438.249 223.463L438.612 217.16Z" fill="#DF5753"/>
<path d="M438.81 226.268C438.784 226.268 438.759 226.263 438.736 226.253C438.712 226.243 438.691 226.228 438.674 226.209C438.656 226.191 438.643 226.169 438.634 226.145C438.625 226.121 438.621 226.095 438.623 226.07C438.626 226.017 438.649 225.966 438.688 225.929C438.727 225.892 438.778 225.872 438.832 225.872C439.673 225.878 440.505 225.695 441.267 225.337C442.028 224.979 442.7 224.455 443.232 223.804C443.27 223.771 443.319 223.752 443.369 223.752C443.42 223.752 443.469 223.771 443.507 223.804C443.543 223.841 443.562 223.89 443.562 223.942C443.562 223.993 443.543 224.042 443.507 224.079C442.937 224.771 442.219 225.327 441.407 225.706C440.594 226.085 439.707 226.277 438.81 226.268Z" fill="#263238"/>
<path d="M445.124 214.795C445.071 214.822 445.013 214.836 444.954 214.836C444.894 214.836 444.836 214.822 444.783 214.795C444.372 214.529 443.903 214.363 443.416 214.312C442.929 214.26 442.436 214.324 441.978 214.498C441.933 214.52 441.885 214.533 441.835 214.537C441.785 214.54 441.735 214.533 441.688 214.517C441.641 214.5 441.597 214.475 441.56 214.441C441.523 214.408 441.493 214.367 441.472 214.322C441.431 214.224 441.43 214.114 441.469 214.015C441.508 213.917 441.584 213.837 441.681 213.794C442.256 213.559 442.879 213.466 443.498 213.524C444.116 213.581 444.712 213.787 445.234 214.124C445.276 214.153 445.312 214.189 445.34 214.232C445.368 214.275 445.387 214.323 445.396 214.373C445.405 214.423 445.405 214.474 445.394 214.524C445.383 214.574 445.362 214.621 445.333 214.663C445.277 214.726 445.205 214.772 445.124 214.795Z" fill="#263238"/>
<path d="M433.321 212.595C433.262 212.581 433.209 212.55 433.167 212.507C433.13 212.471 433.101 212.428 433.081 212.381C433.061 212.334 433.051 212.283 433.051 212.232C433.051 212.181 433.061 212.13 433.081 212.083C433.101 212.036 433.13 211.993 433.167 211.957C433.588 211.484 434.113 211.115 434.701 210.878C435.289 210.642 435.923 210.544 436.555 210.593C436.605 210.601 436.654 210.619 436.697 210.646C436.741 210.673 436.778 210.709 436.807 210.752C436.836 210.794 436.855 210.842 436.865 210.892C436.875 210.942 436.874 210.994 436.863 211.044C436.839 211.146 436.779 211.236 436.694 211.296C436.609 211.357 436.505 211.385 436.401 211.374C435.901 211.342 435.401 211.425 434.937 211.616C434.474 211.806 434.061 212.1 433.728 212.474C433.678 212.53 433.613 212.57 433.541 212.592C433.47 212.613 433.393 212.614 433.321 212.595Z" fill="#263238"/>
<path d="M474.703 257.552L463.263 254.505C463.263 254.505 452.043 282.126 448.072 283.919C442.682 286.383 429.031 294.919 423.223 298.956C422.904 300.331 423.157 303.972 423.883 304.973C433.783 303.169 452.736 295.876 456.696 292.169C465.727 283.71 474.703 257.552 474.703 257.552Z" fill="#E58A7B"/>
<path d="M466.717 529.89C466.159 529.934 465.603 529.783 465.144 529.461C465.002 529.333 464.896 529.171 464.837 528.989C464.777 528.808 464.765 528.614 464.803 528.427C464.81 528.31 464.848 528.197 464.914 528.101C464.98 528.004 465.071 527.926 465.177 527.877C466.101 527.404 468.686 529.043 468.983 529.23C469.016 529.25 469.041 529.28 469.055 529.316C469.069 529.352 469.07 529.391 469.06 529.428C469.051 529.466 469.031 529.502 469.005 529.531C468.978 529.56 468.944 529.581 468.906 529.593C468.189 529.769 467.455 529.869 466.717 529.89ZM465.617 528.174C465.534 528.156 465.447 528.156 465.364 528.174C465.322 528.195 465.287 528.229 465.263 528.27C465.24 528.311 465.229 528.358 465.232 528.405C465.203 528.533 465.208 528.667 465.246 528.792C465.285 528.918 465.356 529.031 465.452 529.12C465.881 529.505 466.959 529.549 468.378 529.274C467.533 528.718 466.582 528.343 465.584 528.174H465.617Z" fill="#00BD78"/>
<path d="M468.851 529.593C468.822 529.602 468.792 529.602 468.763 529.593C467.938 529.131 466.387 527.316 466.618 526.392C466.652 526.245 466.735 526.115 466.853 526.021C466.971 525.927 467.116 525.876 467.267 525.875C467.415 525.855 467.565 525.867 467.707 525.911C467.849 525.955 467.981 526.029 468.092 526.128C469.005 526.909 469.06 529.307 469.06 529.428C469.065 529.464 469.058 529.501 469.04 529.533C469.023 529.565 468.995 529.59 468.961 529.604C468.924 529.611 468.886 529.607 468.851 529.593ZM467.377 526.238H467.3C467.047 526.238 467.014 526.381 467.003 526.436C466.871 526.975 467.85 528.35 468.664 528.999C468.66 528.07 468.372 527.164 467.839 526.403C467.711 526.291 467.546 526.232 467.377 526.238Z" fill="#00BD78"/>
<path d="M437.512 528.515C436.839 528.75 436.106 528.75 435.433 528.515C435.28 528.432 435.15 528.312 435.056 528.166C434.962 528.02 434.906 527.853 434.894 527.679C434.88 527.57 434.894 527.46 434.934 527.358C434.975 527.256 435.04 527.166 435.125 527.096C436.005 526.304 439.602 527.096 440.009 527.25C440.048 527.26 440.082 527.283 440.106 527.315C440.13 527.347 440.142 527.386 440.141 527.426C440.143 527.467 440.132 527.508 440.11 527.543C440.089 527.579 440.057 527.607 440.02 527.624C439.21 527.99 438.371 528.288 437.512 528.515ZM435.719 527.206C435.593 527.231 435.476 527.288 435.378 527.371C435.343 527.397 435.316 527.433 435.3 527.474C435.285 527.515 435.281 527.559 435.29 527.602C435.297 527.718 435.333 527.829 435.395 527.927C435.456 528.025 435.541 528.106 435.642 528.163C436.225 528.471 437.578 528.229 439.327 527.492C438.149 527.195 436.929 527.098 435.719 527.206Z" fill="#00BD78"/>
<path d="M439.987 527.624H439.899C438.799 527.426 436.599 526.161 436.533 525.215C436.533 524.995 436.632 524.687 437.16 524.511C437.338 524.448 437.528 524.421 437.717 524.432C437.906 524.444 438.09 524.493 438.26 524.577C439.448 525.16 440.075 527.272 440.108 527.371C440.116 527.405 440.115 527.439 440.105 527.472C440.095 527.505 440.077 527.535 440.053 527.558C440.037 527.585 440.014 527.608 439.987 527.624ZM437.38 524.841H437.27C436.929 524.962 436.929 525.105 436.929 525.149C436.929 525.721 438.524 526.766 439.635 527.118C439.379 526.235 438.838 525.461 438.095 524.918C437.874 524.806 437.62 524.779 437.38 524.841Z" fill="#00BD78"/>
<path d="M424.158 298.307L412.685 303.587L411.354 306.887L415.589 309.736C415.589 309.736 423.509 308.878 425.764 303.785L424.158 298.307Z" fill="#E58A7B"/>
<path d="M424.642 305.16C424.386 302.956 423.658 300.832 422.508 298.934L424.323 297.57C425.688 299.757 426.559 302.216 426.875 304.775L424.642 305.16Z" fill="#263238"/>
<path d="M426.6 299.869C426.843 300.25 426.962 300.697 426.941 301.149C426.921 301.601 426.762 302.035 426.486 302.393C426.21 302.751 425.83 303.015 425.398 303.15C424.967 303.284 424.504 303.283 424.074 303.145C423.643 303.007 423.265 302.74 422.992 302.38C422.718 302.02 422.562 301.585 422.545 301.133C422.528 300.681 422.65 300.235 422.895 299.856C423.141 299.476 423.497 299.181 423.916 299.011C424.386 298.771 424.932 298.727 425.434 298.888C425.937 299.048 426.356 299.401 426.6 299.869Z" fill="#263238"/>
<path d="M404.93 307.855L406.459 309.395L416.755 304.995L412.685 303.587L404.93 307.855Z" fill="#E58A7B"/>
<path opacity="0.2" d="M449.139 508.913C449.205 508.913 450.701 513.115 450.701 513.115L435.477 519.517L433.079 515.051L449.139 508.913Z" fill="black"/>
<path opacity="0.2" d="M480.258 514.248C480.324 514.248 480.764 518.483 480.764 518.483H464.088L462.9 513.621L480.258 514.248Z" fill="black"/>
<path d="M477.684 254.384C480.709 264.141 468.884 277.484 468.884 277.484L452.549 270.818C454.485 265.179 456.718 259.645 459.237 254.241C464.253 243.428 474.626 244.539 477.684 254.384Z" fill="#00BD78"/>
<path opacity="0.2" d="M477.684 254.384C480.709 264.141 468.884 277.484 468.884 277.484L452.549 270.818C454.485 265.179 456.718 259.645 459.237 254.241C464.253 243.428 474.626 244.539 477.684 254.384Z" fill="black"/>
<path d="M315.368 156.627H308.339V157.76H315.368V156.627Z" fill="#00BD78"/>
<path d="M406.358 201.47L405.508 220.349L406.639 220.4L407.49 201.521L406.358 201.47Z" fill="#00BD78"/>
<path d="M403.891 167.977C404.044 164.561 401.316 161.709 397.897 161.709H280.109C276.899 161.709 274.258 164.235 274.115 167.441L262.573 425.733C262.42 429.149 265.148 432.001 268.567 432.001H386.355C389.565 432.001 392.206 429.475 392.349 426.269L403.891 167.977Z" fill="#00BD78"/>
<path opacity="0.56" d="M400.159 168.561C400.235 166.853 398.872 165.427 397.162 165.427H273.368C271.763 165.427 270.443 166.69 270.371 168.293L258.561 432.585C258.485 434.293 259.849 435.719 261.558 435.719H385.352C386.957 435.719 388.278 434.456 388.349 432.853L400.159 168.561Z" fill="#FAFAFA"/>
<path opacity="0.07" d="M396.193 174.357C396.321 171.511 394.047 169.134 391.198 169.134H271.408C268.734 169.134 266.533 171.239 266.413 173.911L254.772 434.203C254.644 437.049 256.917 439.426 259.767 439.426H379.557C382.231 439.426 384.432 437.322 384.552 434.65L396.193 174.357Z" fill="white"/>
<path d="M381.421 292.244C381.548 289.398 379.275 287.021 376.426 287.021H275.644C272.969 287.021 270.768 289.126 270.649 291.798L270.171 302.478C270.044 305.324 272.317 307.701 275.166 307.701H375.948C378.623 307.701 380.824 305.596 380.943 302.924L381.421 292.244Z" fill="white"/>
<path d="M331.699 274.017C331.749 272.879 330.84 271.929 329.701 271.929H273.447C272.377 271.929 271.496 272.772 271.449 273.841L271.218 279.092C271.168 280.23 272.077 281.18 273.216 281.18H329.47C330.54 281.18 331.421 280.337 331.468 279.268L331.699 274.017Z" fill="#00BD78"/>
<path d="M379.017 345.969C379.093 344.261 377.729 342.835 376.02 342.835H271.234C269.629 342.835 268.309 344.098 268.237 345.701L267.581 360.381C267.505 362.089 268.869 363.515 270.578 363.515H375.364C376.969 363.515 378.289 362.252 378.361 360.649L379.017 345.969Z" fill="white"/>
<path opacity="0.47" d="M358.7 394.579C358.776 392.871 357.412 391.444 355.703 391.444H287.206C285.601 391.444 284.28 392.707 284.209 394.31L283.367 413.093C283.29 414.801 284.654 416.227 286.364 416.227H354.861C356.465 416.227 357.786 414.964 357.858 413.361L358.7 394.579Z" fill="#00BD78"/>
<path d="M353.857 420.077H279.354C279.322 420.086 279.287 420.086 279.255 420.077C279.244 420.045 279.244 420.01 279.255 419.978L280.355 395.184C280.355 395.167 280.358 395.151 280.365 395.135C280.372 395.12 280.382 395.106 280.394 395.094C280.407 395.083 280.421 395.074 280.437 395.069C280.453 395.064 280.47 395.062 280.487 395.063H354.99C355.004 395.056 355.019 395.053 355.034 395.053C355.049 395.053 355.064 395.056 355.078 395.063C355.086 395.077 355.09 395.092 355.09 395.107C355.09 395.123 355.086 395.138 355.078 395.151L354 420C353.987 420.026 353.966 420.047 353.94 420.061C353.915 420.075 353.886 420.08 353.857 420.077ZM279.486 419.813H353.725L354.825 395.283H280.586L279.486 419.813Z" fill="white"/>
<path d="M319.784 329.833C319.835 328.694 318.926 327.743 317.786 327.743H272.05C270.98 327.743 270.099 328.586 270.052 329.655L269.821 334.917C269.771 336.055 270.68 337.005 271.819 337.005H317.548C318.618 337.005 319.498 336.163 319.546 335.095L319.784 329.833Z" fill="#00BD78"/>
<path d="M357.421 220.218C357.137 226.236 354.996 232.019 351.294 236.773C348.553 240.363 345.026 243.278 340.984 245.294C336.941 247.309 332.491 248.372 327.974 248.4C324.324 248.428 320.707 247.708 317.345 246.285C313.984 244.862 310.949 242.766 308.429 240.126C305.908 237.485 303.954 234.357 302.689 230.933C301.423 227.51 300.871 223.863 301.068 220.218C301.455 212.654 304.717 205.524 310.186 200.286C315.656 195.047 322.92 192.096 330.493 192.036C334.146 192.002 337.767 192.717 341.132 194.138C344.498 195.558 347.537 197.654 350.06 200.295C352.584 202.937 354.539 206.067 355.805 209.494C357.071 212.92 357.621 216.57 357.421 220.218Z" fill="white"/>
<path d="M360.072 197.932C360 199.532 359.431 201.07 358.444 202.332C357.714 203.286 356.775 204.06 355.7 204.596C354.625 205.131 353.441 205.414 352.24 205.423C351.076 205.43 349.928 205.152 348.897 204.613C347.865 204.074 346.981 203.291 346.322 202.332C345.449 201.036 345.017 199.493 345.09 197.932C345.196 195.924 346.065 194.032 347.518 192.642C348.971 191.252 350.9 190.469 352.911 190.452C353.881 190.443 354.843 190.633 355.737 191.01C356.631 191.387 357.438 191.943 358.109 192.644C358.78 193.344 359.3 194.175 359.638 195.085C359.975 195.994 360.123 196.963 360.072 197.932Z" fill="#00BD78"/>
<path d="M289.397 297.361C289.344 298.247 288.957 299.081 288.314 299.693C287.671 300.306 286.82 300.652 285.932 300.661C285.503 300.666 285.078 300.583 284.683 300.418C284.287 300.252 283.93 300.007 283.633 299.697C283.336 299.388 283.106 299.021 282.956 298.619C282.807 298.217 282.741 297.789 282.764 297.361C282.812 296.473 283.197 295.636 283.841 295.023C284.485 294.41 285.339 294.065 286.229 294.061C286.657 294.058 287.082 294.142 287.476 294.308C287.871 294.474 288.228 294.719 288.524 295.028C288.821 295.337 289.051 295.703 289.201 296.105C289.351 296.506 289.418 296.933 289.397 297.361Z" fill="#263238"/>
<path d="M304.225 297.361C304.175 298.248 303.789 299.083 303.145 299.696C302.501 300.309 301.649 300.654 300.76 300.661C300.332 300.665 299.908 300.581 299.514 300.414C299.12 300.248 298.764 300.002 298.468 299.693C298.173 299.384 297.943 299.018 297.794 298.617C297.646 298.216 297.58 297.788 297.603 297.361C297.651 296.475 298.034 295.64 298.676 295.027C299.318 294.414 300.169 294.068 301.057 294.061C301.486 294.056 301.911 294.139 302.306 294.305C302.702 294.47 303.059 294.715 303.356 295.025C303.653 295.334 303.883 295.701 304.033 296.103C304.182 296.505 304.248 296.933 304.225 297.361Z" fill="#263238"/>
<path d="M319.064 297.361C319.014 298.248 318.628 299.083 317.984 299.696C317.34 300.309 316.488 300.654 315.599 300.661C315.171 300.665 314.746 300.581 314.352 300.414C313.957 300.248 313.6 300.003 313.304 299.694C313.007 299.385 312.777 299.019 312.627 298.618C312.477 298.216 312.41 297.789 312.431 297.361C312.481 296.474 312.867 295.639 313.511 295.026C314.155 294.413 315.007 294.068 315.896 294.061C316.325 294.056 316.75 294.139 317.145 294.305C317.541 294.47 317.898 294.715 318.195 295.025C318.492 295.334 318.722 295.701 318.872 296.103C319.021 296.505 319.087 296.933 319.064 297.361Z" fill="#263238"/>
<path d="M285.8 353.175C285.747 354.061 285.36 354.895 284.717 355.507C284.074 356.119 283.223 356.465 282.335 356.475C281.907 356.478 281.482 356.394 281.088 356.228C280.693 356.062 280.336 355.817 280.04 355.508C279.743 355.199 279.513 354.832 279.363 354.431C279.213 354.03 279.146 353.603 279.167 353.175C279.217 352.287 279.604 351.453 280.247 350.84C280.891 350.227 281.743 349.882 282.632 349.875C283.06 349.871 283.485 349.955 283.88 350.122C284.274 350.288 284.631 350.533 284.927 350.842C285.224 351.151 285.454 351.517 285.604 351.918C285.754 352.319 285.821 352.747 285.8 353.175Z" fill="#263238"/>
<path d="M300.628 353.175C300.578 354.06 300.193 354.894 299.552 355.506C298.911 356.119 298.061 356.465 297.174 356.475C296.745 356.48 296.32 356.397 295.925 356.231C295.529 356.065 295.172 355.82 294.875 355.511C294.578 355.202 294.348 354.835 294.198 354.433C294.049 354.031 293.983 353.603 294.006 353.175C294.056 352.287 294.442 351.453 295.086 350.84C295.73 350.227 296.582 349.882 297.471 349.875C297.899 349.871 298.323 349.955 298.717 350.122C299.111 350.288 299.467 350.533 299.763 350.843C300.058 351.152 300.288 351.518 300.437 351.919C300.585 352.32 300.651 352.748 300.628 353.175Z" fill="#263238"/>
<path d="M315.5 353.175C315.45 354.062 315.064 354.897 314.42 355.51C313.777 356.123 312.924 356.468 312.035 356.475C311.607 356.477 311.184 356.392 310.79 356.225C310.396 356.058 310.04 355.813 309.743 355.504C309.447 355.196 309.217 354.83 309.066 354.429C308.915 354.029 308.848 353.602 308.867 353.175C308.92 352.288 309.307 351.455 309.95 350.843C310.593 350.23 311.444 349.884 312.332 349.875C312.761 349.87 313.186 349.953 313.581 350.118C313.977 350.284 314.334 350.529 314.631 350.838C314.928 351.148 315.158 351.515 315.308 351.917C315.457 352.318 315.523 352.747 315.5 353.175Z" fill="#263238"/>
<path d="M330.306 353.175C330.253 354.061 329.866 354.895 329.223 355.507C328.58 356.119 327.729 356.465 326.841 356.475C326.413 356.477 325.989 356.392 325.595 356.225C325.201 356.058 324.846 355.813 324.549 355.504C324.253 355.195 324.023 354.83 323.872 354.429C323.721 354.029 323.654 353.602 323.673 353.175C323.726 352.288 324.113 351.455 324.756 350.843C325.399 350.23 326.25 349.884 327.138 349.875C327.566 349.871 327.991 349.955 328.385 350.122C328.78 350.288 329.137 350.533 329.433 350.842C329.73 351.151 329.96 351.517 330.11 351.918C330.26 352.319 330.327 352.747 330.306 353.175Z" fill="#263238"/>
<path d="M345.2 353.175C345.147 354.061 344.76 354.895 344.117 355.507C343.474 356.119 342.623 356.465 341.735 356.475C341.306 356.48 340.881 356.397 340.486 356.231C340.09 356.065 339.733 355.82 339.436 355.511C339.139 355.202 338.909 354.835 338.759 354.433C338.61 354.031 338.544 353.603 338.567 353.175C338.617 352.287 339.003 351.453 339.647 350.84C340.29 350.227 341.143 349.882 342.032 349.875C342.46 349.871 342.885 349.955 343.279 350.122C343.674 350.288 344.031 350.533 344.327 350.842C344.624 351.151 344.854 351.517 345.004 351.918C345.154 352.319 345.221 352.747 345.2 353.175Z" fill="#263238"/>
<path d="M337.449 218.75C342.053 214.248 342.297 207.031 337.994 202.631C333.692 198.231 326.471 198.314 321.867 202.817C317.263 207.319 317.019 214.536 321.322 218.936C325.624 223.336 332.845 223.253 337.449 218.75Z" fill="#00BD78"/>
<path d="M351.294 236.773C348.553 240.364 345.026 243.278 340.984 245.294C336.941 247.309 332.491 248.372 327.974 248.4C323.594 248.437 319.272 247.396 315.389 245.368C311.506 243.341 308.182 240.389 305.71 236.773C311.056 231.449 319.515 227.973 328.887 227.973C338.259 227.973 346.421 231.449 351.294 236.773Z" fill="#00BD78"/>
<path opacity="0.1" d="M337.449 218.75C342.053 214.248 342.297 207.031 337.994 202.631C333.692 198.231 326.471 198.314 321.867 202.817C317.263 207.319 317.019 214.536 321.322 218.936C325.624 223.336 332.845 223.253 337.449 218.75Z" fill="white"/>
<path opacity="0.1" d="M351.294 236.773C348.553 240.364 345.026 243.278 340.984 245.294C336.941 247.309 332.491 248.372 327.974 248.4C323.594 248.437 319.272 247.396 315.389 245.368C311.506 243.341 308.182 240.389 305.71 236.773C311.056 231.449 319.515 227.973 328.887 227.973C338.259 227.973 346.421 231.449 351.294 236.773Z" fill="white"/>
<path d="M189.451 312.684C188.406 314.972 187.306 317.491 186.349 319.933C185.392 322.375 184.413 324.894 183.566 327.402C181.837 332.345 180.52 337.422 179.628 342.582L179.386 344.199C179.363 344.476 179.389 344.756 179.463 345.024C179.723 345.936 180.132 346.798 180.673 347.576C182.086 349.59 183.724 351.435 185.557 353.076C187.489 354.873 189.516 356.566 191.629 358.147C193.741 359.775 195.963 361.359 198.152 362.855L196.095 366.716C190.868 364.439 185.907 361.595 181.3 358.235C178.842 356.443 176.624 354.343 174.7 351.987C173.559 350.585 172.67 348.996 172.071 347.29C171.723 346.225 171.545 345.111 171.543 343.99C171.543 343.726 171.543 343.341 171.543 343.154V342.615L171.653 341.515C172.284 335.784 173.489 330.131 175.25 324.641C176.108 321.935 177.021 319.24 178.066 316.611C179.111 313.982 180.189 311.408 181.52 308.735L189.451 312.684Z" fill="#E58A7B"/>
<path d="M196.601 362.173L204.378 358.235L202.365 366.771C202.365 366.771 197.03 368.267 194.555 365.671L196.601 362.173Z" fill="#E58A7B"/>
<path d="M211.495 359.632L209.427 366.694L202.365 366.771L204.378 358.235L211.495 359.632Z" fill="#E58A7B"/>
<path d="M222.473 271.5C222.889 273.024 223.468 274.499 224.2 275.9C223.986 276.142 223.711 276.322 223.403 276.421C223.095 276.52 222.766 276.534 222.451 276.461L222.473 271.5Z" fill="#DF5753"/>
<path d="M222.242 271.566C222.698 271.566 223.067 270.999 223.067 270.301C223.067 269.602 222.698 269.036 222.242 269.036C221.786 269.036 221.417 269.602 221.417 270.301C221.417 270.999 221.786 271.566 222.242 271.566Z" fill="#263238"/>
<path d="M222 269.08L223.672 268.607C223.672 268.607 222.858 269.905 222 269.08Z" fill="#263238"/>
<path d="M200.99 279.574C201.991 284.689 202.992 294.072 199.406 297.493C199.406 297.493 200.814 302.685 210.329 302.685C220.79 302.685 215.323 297.493 215.323 297.493C209.614 296.129 209.757 291.894 210.758 287.912L200.99 279.574Z" fill="#E58A7B"/>
<path d="M198.207 267.914C198.735 276.461 198.779 280.091 203.091 284.48C209.592 291.08 219.976 288.572 222.011 280.08C223.848 272.38 222.682 259.708 214.311 256.309C212.474 255.552 210.473 255.276 208.5 255.508C206.526 255.739 204.644 256.471 203.032 257.633C201.419 258.794 200.13 260.348 199.286 262.147C198.442 263.946 198.07 265.931 198.207 267.914Z" fill="#E58A7B"/>
<path d="M199.054 258.3C194.764 259.862 189.044 258.696 191.288 271.929C193.664 285.943 190.012 290.552 190.012 290.552C190.012 290.552 206.281 294.017 222.891 290.343C222.891 290.343 217.82 281.477 219.239 274.943C221.054 266.693 219.624 263.646 219.624 263.646C219.624 263.646 205.082 256.1 199.054 258.3Z" fill="#263238"/>
<path d="M217.204 272.369C217.208 273.994 217.674 275.584 218.546 276.956C219.712 278.738 221.087 278.056 221.428 276.164C221.736 274.503 221.505 271.566 220.02 270.422C218.535 269.278 217.226 270.4 217.204 272.369Z" fill="#E58A7B"/>
<path d="M195.325 259.741C194.093 256.276 199.967 250.941 212.397 253.141C224.827 255.341 225.366 265.692 225.366 265.692L222.858 262.7L222.968 265.846L210.197 268.299L195.325 259.741Z" fill="#263238"/>
<path d="M196.381 298.076C196.308 297.574 196.433 297.063 196.731 296.652C197.029 296.241 197.476 295.962 197.976 295.876C201.848 295.238 210.648 293.94 215.07 294.556C218.37 295.018 219.228 296.932 219.371 298.505C219.393 298.78 219.357 299.057 219.263 299.317C219.169 299.577 219.021 299.814 218.829 300.012C218.636 300.21 218.403 300.365 218.145 300.465C217.888 300.566 217.612 300.61 217.336 300.595L198.218 299.737C197.767 299.714 197.338 299.536 197.004 299.234C196.669 298.931 196.449 298.522 196.381 298.076Z" fill="#00BD78"/>
<path opacity="0.6" d="M196.381 298.076C196.308 297.574 196.433 297.063 196.731 296.652C197.029 296.241 197.476 295.962 197.976 295.876C201.848 295.238 210.648 293.94 215.07 294.556C218.37 295.018 219.228 296.932 219.371 298.505C219.393 298.78 219.357 299.057 219.263 299.317C219.169 299.577 219.021 299.814 218.829 300.012C218.636 300.21 218.403 300.365 218.145 300.465C217.888 300.566 217.612 300.61 217.336 300.595L198.218 299.737C197.767 299.714 197.338 299.536 197.004 299.234C196.669 298.931 196.449 298.522 196.381 298.076Z" fill="black"/>
<path d="M207.436 490.246L214.531 495.174L226.4 479.081L219.305 474.164L207.436 490.246Z" fill="#E58A7B"/>
<path d="M190.892 489.927L198.383 494.195L208.888 477.178L201.397 472.91L190.892 489.927Z" fill="#E58A7B"/>
<path d="M226.389 479.081L220.273 487.375L213.178 482.458L219.294 474.164L226.389 479.081Z" fill="#CF6F64"/>
<path d="M201.386 472.91L208.888 477.189L203.476 485.956L195.974 481.677L201.386 472.91Z" fill="#CF6F64"/>
<path d="M213.42 351.8C213.42 351.8 241.118 386.703 235.915 420.088C231.724 447.049 207.414 483.558 207.414 483.558L195.985 477.882C204.041 461.74 210.916 445.035 216.555 427.898C218.294 422.578 218.802 416.932 218.04 411.387C217.277 405.841 215.265 400.542 212.155 395.888C198.119 375.395 175.635 387.594 190.76 351.8H213.42Z" fill="#00BD78"/>
<path opacity="0.6" d="M213.42 351.8C213.42 351.8 241.118 386.703 235.915 420.088C231.724 447.049 207.414 483.558 207.414 483.558L195.985 477.882C204.041 461.74 210.916 445.035 216.555 427.898C218.294 422.578 218.802 416.932 218.04 411.387C217.277 405.841 215.265 400.542 212.155 395.888C198.119 375.395 175.635 387.594 190.76 351.8H213.42Z" fill="black"/>
<path opacity="0.4" d="M227.005 374.218L222.979 370.214C222.979 370.533 230.778 418.68 232.967 432.21C234.259 428.258 235.248 424.213 235.926 420.11C238.5 403.731 233.121 387 227.005 374.218Z" fill="black"/>
<path d="M225.784 351.8C225.784 351.8 259.136 395.668 260.082 421.969C260.863 443.969 223.782 486.594 223.782 486.594L213.002 479.62C213.002 479.62 234.705 449.348 240.172 424.62C238.06 400.112 193.4 351.8 193.4 351.8H225.784Z" fill="#00BD78"/>
<path opacity="0.6" d="M225.784 351.8C225.784 351.8 259.136 395.668 260.082 421.969C260.863 443.969 223.782 486.594 223.782 486.594L213.002 479.62C213.002 479.62 234.705 449.348 240.172 424.62C238.06 400.112 193.4 351.8 193.4 351.8H225.784Z" fill="black"/>
<path d="M184.523 299.451C180.959 300.298 177.538 313.256 177.538 313.256L191.475 322.562C191.475 322.562 196.117 312.31 194.489 307.822C192.806 303.147 189 298.384 184.523 299.451Z" fill="#00BD78"/>
<path opacity="0.2" d="M187.251 307.8L186.283 319.097L191.464 322.573C192.895 319.352 193.954 315.979 194.621 312.519L187.251 307.8Z" fill="black"/>
<path d="M229.909 299.704C229.909 299.704 234.023 301.145 225.784 351.789H190.738C191.332 337.489 191.343 328.689 184.523 299.451C189.43 298.44 194.404 297.785 199.406 297.493C204.705 297.113 210.024 297.113 215.323 297.493C222.165 298.12 229.909 299.704 229.909 299.704Z" fill="#00BD78"/>
<path d="M233.473 307.8C234.265 310 235.101 312.365 235.981 314.642C236.861 316.919 237.697 319.262 238.588 321.572L241.283 328.48L241.965 330.207L242.317 331.065L242.482 331.494C242.482 331.571 242.482 331.571 242.482 331.56C242.281 331.277 242.018 331.043 241.712 330.878C241.277 330.622 240.786 330.475 240.282 330.449C239.863 330.436 239.446 330.515 239.061 330.68C238.555 330.911 238.555 331.01 238.566 330.999C238.657 330.926 238.739 330.841 238.808 330.746C239.417 329.946 239.944 329.088 240.381 328.183C240.898 327.171 241.393 326.093 241.888 325.004C242.856 322.804 243.747 320.527 244.638 318.228C245.529 315.929 246.376 313.608 247.201 311.265L249.709 304.247L253.944 305.347C253.108 310.363 252.03 315.247 250.732 320.219C250.105 322.694 249.368 325.147 248.532 327.622C248.114 328.865 247.652 330.097 247.124 331.362C246.574 332.735 245.896 334.053 245.1 335.3C244.807 335.72 244.484 336.117 244.132 336.488C243.57 337.095 242.889 337.578 242.13 337.907C241.457 338.196 240.728 338.331 239.996 338.303C239.176 338.272 238.377 338.034 237.675 337.61C236.846 337.093 236.159 336.379 235.673 335.531C235.508 335.245 235.365 334.959 235.266 334.75L235.057 334.332L234.639 333.474L233.803 331.769C232.703 329.481 231.603 327.171 230.646 324.85C229.689 322.529 228.677 320.175 227.731 317.81C226.785 315.445 225.938 313.08 225.135 310.528L233.473 307.8Z" fill="#E58A7B"/>
<path d="M229.909 299.704C234.122 300.705 238.863 313.157 238.863 313.157L226.334 323.816C226.334 323.816 218.227 310.242 219.866 305.765C221.571 301.101 224.409 298.395 229.909 299.704Z" fill="#00BD78"/>
<path d="M251.7 300.309L256.1 296.635L259.158 301.398L256.903 305.369C256.903 305.369 253.317 308.669 250.149 306.986C249.646 305.856 249.526 304.592 249.805 303.388C250.085 302.183 250.75 301.102 251.7 300.309Z" fill="#E58A7B"/>
<path d="M264.042 296.646L263.712 297.845L256.749 299.011L256.067 296.635L264.042 296.646Z" fill="#E58A7B"/>
<path d="M224.64 487.155L212.078 479.037L214.333 475.121L228.446 483.8L224.64 487.155Z" fill="#00BD78"/>
<path d="M203.3 493.623C202.198 493.488 201.139 493.113 200.198 492.523C200.159 492.51 200.126 492.484 200.102 492.451C200.078 492.417 200.065 492.377 200.065 492.336C200.065 492.295 200.078 492.255 200.102 492.221C200.126 492.188 200.159 492.163 200.198 492.149C200.539 492.039 203.498 491.126 204.356 491.83C204.452 491.91 204.526 492.015 204.568 492.133C204.611 492.251 204.621 492.378 204.598 492.501C204.583 492.699 204.517 492.89 204.407 493.056C204.298 493.221 204.147 493.356 203.971 493.447C203.765 493.56 203.535 493.62 203.3 493.623ZM200.825 492.413C202.2 493.117 203.3 493.37 203.828 493.106C203.943 493.042 204.04 492.95 204.109 492.839C204.178 492.727 204.218 492.599 204.224 492.468C204.224 492.292 204.224 492.215 204.125 492.171C203.663 491.797 202.013 492.083 200.803 492.413H200.825Z" fill="#263238"/>
<path d="M200.275 492.6C200.217 492.599 200.162 492.575 200.121 492.534C200.105 492.503 200.096 492.469 200.096 492.435C200.096 492.4 200.105 492.366 200.121 492.336C200.121 492.237 200.836 489.85 201.958 489.311C202.101 489.245 202.257 489.212 202.415 489.212C202.572 489.212 202.728 489.245 202.871 489.311C203.025 489.36 203.159 489.459 203.251 489.592C203.343 489.726 203.387 489.886 203.377 490.048C203.3 491.038 201.287 492.402 200.363 492.633L200.275 492.6ZM202.409 489.597C202.302 489.6 202.197 489.626 202.101 489.674C201.419 490.004 200.858 491.291 200.583 492.072C201.551 491.665 202.882 490.587 202.926 489.982C202.926 489.883 202.926 489.762 202.673 489.652C202.591 489.608 202.501 489.578 202.409 489.564V489.597Z" fill="#263238"/>
<path d="M218.997 498.375C217.754 498.375 216.027 496.78 215.081 495.801C215.057 495.767 215.044 495.727 215.044 495.686C215.044 495.644 215.057 495.604 215.081 495.57C215.103 495.535 215.134 495.506 215.171 495.486C215.207 495.467 215.249 495.458 215.29 495.46C215.73 495.46 219.547 496.032 220.086 497.11C220.143 497.207 220.173 497.317 220.173 497.429C220.173 497.541 220.143 497.651 220.086 497.748C220.005 497.916 219.883 498.061 219.731 498.168C219.579 498.276 219.402 498.343 219.217 498.364L218.997 498.375ZM215.807 495.955C217.193 497.297 218.414 498.045 219.107 497.957C219.228 497.941 219.344 497.896 219.444 497.825C219.544 497.754 219.624 497.66 219.679 497.55C219.704 497.513 219.717 497.469 219.717 497.424C219.717 497.379 219.704 497.335 219.679 497.297C219.393 496.703 217.358 496.197 215.807 495.955Z" fill="#263238"/>
<path d="M215.928 495.9C215.681 495.907 215.434 495.889 215.191 495.845C215.157 495.84 215.125 495.826 215.098 495.805C215.071 495.784 215.05 495.756 215.037 495.724C215.021 495.692 215.012 495.656 215.012 495.62C215.012 495.583 215.021 495.548 215.037 495.515C215.103 495.438 216.588 493.645 217.996 493.524C218.395 493.493 218.789 493.62 219.096 493.876C219.525 494.25 219.503 494.58 219.393 494.789C219.118 495.537 217.215 495.9 215.928 495.9ZM215.642 495.493C216.874 495.559 218.843 495.152 219.096 494.613C219.096 494.613 219.184 494.437 218.898 494.195C218.784 494.096 218.651 494.022 218.507 493.976C218.364 493.931 218.212 493.916 218.062 493.931C217.113 494.196 216.269 494.745 215.642 495.504V495.493Z" fill="#263238"/>
<path d="M200.572 491.412L191.244 488.772C191.083 488.723 190.91 488.735 190.758 488.807C190.606 488.878 190.485 489.002 190.419 489.157L187.273 496.23C187.199 496.411 187.164 496.606 187.171 496.801C187.178 496.997 187.226 497.189 187.312 497.364C187.399 497.54 187.521 497.695 187.672 497.82C187.822 497.945 187.998 498.037 188.186 498.089C191.486 498.947 193.07 499.189 197.173 500.366C199.703 501.07 203.311 502.379 206.798 503.369C210.285 504.359 211.451 500.96 210.098 500.234C203.982 497 203.498 494.734 201.826 492.314C201.527 491.876 201.083 491.556 200.572 491.412Z" fill="#00BD78"/>
<path d="M215.334 494.514L207.37 489.014C207.235 488.916 207.069 488.87 206.902 488.886C206.736 488.903 206.582 488.979 206.468 489.102L201.188 494.778C201.059 494.925 200.963 495.097 200.907 495.284C200.85 495.47 200.833 495.667 200.858 495.861C200.883 496.054 200.949 496.24 201.051 496.406C201.154 496.572 201.29 496.715 201.452 496.824C204.257 498.705 205.709 499.464 209.218 501.895C211.418 503.391 215.675 506.713 218.645 508.781C221.615 510.849 223.826 508.011 222.77 506.889C218.04 501.84 217.006 498.672 216.225 495.801C216.09 495.28 215.774 494.824 215.334 494.514Z" fill="#00BD78"/>
<path d="M208.877 484.284L194.522 477.145L196.007 473.251L211.341 480.775L208.877 484.284Z" fill="#00BD78"/>
<path d="M190.21 349.732L189 352.9C188.879 353.142 189.165 353.395 189.572 353.395H225.96C226.279 353.395 226.543 353.241 226.565 353.043L226.873 349.897C226.873 349.688 226.62 349.501 226.279 349.501H190.782C190.675 349.491 190.567 349.507 190.468 349.547C190.368 349.587 190.28 349.651 190.21 349.732Z" fill="#00BD78"/>
<path opacity="0.4" d="M190.21 349.732L189 352.9C188.879 353.142 189.165 353.395 189.572 353.395H225.96C226.279 353.395 226.543 353.241 226.565 353.043L226.873 349.897C226.873 349.688 226.62 349.501 226.279 349.501H190.782C190.675 349.491 190.567 349.507 190.468 349.547C190.368 349.587 190.28 349.651 190.21 349.732Z" fill="white"/>
<path d="M195.941 353.703H194.984C194.797 353.703 194.654 353.604 194.665 353.483L195.116 349.402C195.116 349.292 195.292 349.193 195.479 349.193H196.436C196.623 349.193 196.766 349.292 196.755 349.402L196.304 353.483C196.293 353.604 196.128 353.703 195.941 353.703Z" fill="#00BD78"/>
<path d="M218.381 353.703H217.435C217.248 353.703 217.105 353.604 217.116 353.483L217.556 349.402C217.556 349.292 217.743 349.193 217.93 349.193H218.876C219.063 349.193 219.217 349.292 219.195 349.402L218.755 353.483C218.7 353.604 218.579 353.703 218.381 353.703Z" fill="#00BD78"/>
<g style="mix-blend-mode:multiply">
<path d="M195.105 539.988C211.38 539.988 224.574 539.033 224.574 537.854C224.574 536.676 211.38 535.72 195.105 535.72C178.83 535.72 165.636 536.676 165.636 537.854C165.636 539.033 178.83 539.988 195.105 539.988Z" fill="#F5F5F5"/>
</g>
<path d="M213.057 534.84C207.843 533.322 202.057 531.375 198.559 529.34C198.46 529.274 198.35 529.241 198.251 529.186V505.58H208.8C209.601 505.533 210.353 505.181 210.903 504.598C211.454 504.014 211.76 503.242 211.76 502.44C211.76 501.638 211.454 500.866 210.903 500.282C210.353 499.698 209.601 499.347 208.8 499.299H198.306V391.697H191.97V499.299H181.487C181.059 499.274 180.63 499.336 180.227 499.483C179.824 499.629 179.455 499.856 179.143 500.15C178.831 500.445 178.583 500.799 178.413 501.193C178.243 501.587 178.155 502.011 178.155 502.44C178.155 502.869 178.243 503.293 178.413 503.687C178.583 504.08 178.831 504.435 179.143 504.729C179.455 505.023 179.824 505.25 180.227 505.397C180.63 505.543 181.059 505.606 181.487 505.58H191.97V529.153C191.871 529.153 191.772 529.241 191.673 529.307C188.12 531.375 182.378 533.322 177.164 534.807C176.812 534.914 176.509 535.143 176.311 535.453C176.114 535.763 176.033 536.134 176.085 536.498C176.137 536.863 176.317 537.196 176.594 537.439C176.871 537.682 177.225 537.817 177.593 537.821H212.628C212.98 537.797 213.312 537.654 213.571 537.414C213.829 537.174 213.997 536.853 214.048 536.504C214.098 536.155 214.027 535.8 213.847 535.497C213.666 535.194 213.388 534.962 213.057 534.84Z" fill="#E0E0E0"/>
<path d="M214.674 380.741H175.558C172.411 380.741 169.86 383.292 169.86 386.439V398.066C169.86 401.213 172.411 403.764 175.558 403.764H214.674C217.821 403.764 220.372 401.213 220.372 398.066V386.439C220.372 383.292 217.821 380.741 214.674 380.741Z" fill="#00BD78"/>
<path d="M175.195 403.775V405.777C175.195 407.427 176.988 408.769 179.188 408.769H211.088C213.288 408.769 215.081 407.427 215.081 405.777V403.775H175.195Z" fill="#00BD78"/>
<path opacity="0.3" d="M175.195 403.775V405.777C175.195 407.427 176.988 408.769 179.188 408.769H211.088C213.288 408.769 215.081 407.427 215.081 405.777V403.775H175.195Z" fill="white"/>
</svg>
