<svg xmlns="http://www.w3.org/2000/svg" width="450" height="450" fill="none"><path fill="#B2C2C2" d="M126.409 146.534c12.834-12.663 12.906-32.121 9.432-49.005-.585-2.817-.783-5.859-2.556-8.1-1.773-2.241-5.211-3.42-7.542-1.8-1.935 1.35-2.439 3.96-3.267 6.183a16.883 16.883 0 0 1-5.562 7.488c-1.647 1.242-3.78 2.196-5.733 1.521-2.7-.9-3.546-4.257-4.005-7.083l-2.592-15.777a26.888 26.888 0 0 0-2.286-8.235c-1.332-2.52-3.7-4.68-6.507-4.968-2.808-.288-5.86 1.8-5.958 4.671.093 1.186.267 2.365.522 3.528.117 1.188-.207 2.574-1.26 3.087-1.053.513-2.331-.081-3.321-.765-3.393-2.349-5.994-5.679-8.46-9-2.466-3.321-4.905-6.759-8.1-9.414-3.195-2.655-7.2-4.5-11.322-4.023-4.122.477-7.947 3.681-8.29 7.821-.341 4.14 2.7 7.785 5.734 10.575A64.127 64.127 0 0 0 70.6 83.471a5.229 5.229 0 0 1 2.592 1.98c.9 1.8-.522 3.951-2.277 4.878-1.98 1.062-4.293 1.233-6.453 1.872s-4.365 2.007-4.842 4.23c-.666 3.078 2.259 5.688 4.968 7.254a54.596 54.596 0 0 0 17.532 6.489c2.205.405 4.5.693 6.417 1.863 1.917 1.17 3.366 3.537 2.7 5.697-.666 2.16-3.16 3.24-5.4 3.204-2.241-.036-4.392-.9-6.588-1.305-4.131-.801-9.081.324-10.998 4.095a9.054 9.054 0 0 0 .405 8.055 20.804 20.804 0 0 0 5.436 6.237 55.07 55.07 0 0 0 25.929 12.312c9.513 1.575 18 .999 26.361-3.798"/><path fill="#E0E0E0" d="M52.749 57.978c.097.086.202.161.315.225l.963.603c.855.522 2.106 1.305 3.69 2.349a106.49 106.49 0 0 1 12.762 9.783c2.538 2.25 5.229 4.833 8.1 7.668a253.844 253.844 0 0 1 8.874 9.198 131.257 131.257 0 0 1 9 10.863c1.449 1.971 2.808 4.059 4.185 6.192l4.185 6.48a261.62 261.62 0 0 1 14.661 25.461 127.407 127.407 0 0 1 8.649 22.329 93.219 93.219 0 0 1 2.988 15.876c.171 1.899.279 3.384.315 4.392 0 .477.045.855.063 1.143a2.777 2.777 0 0 0 0 .387 1.788 1.788 0 0 0 0-.387v-1.152c0-1.008-.081-2.493-.216-4.401a89.417 89.417 0 0 0-2.835-15.957 125.402 125.402 0 0 0-8.577-22.446 255.443 255.443 0 0 0-14.679-25.488l-4.185-6.48c-1.386-2.124-2.754-4.23-4.221-6.21a124.327 124.327 0 0 0-9.027-10.926c-3.051-3.33-6.075-6.372-8.919-9.18-2.844-2.808-5.553-5.4-8.1-7.641a102.595 102.595 0 0 0-12.906-9.684c-1.611-1.017-2.88-1.8-3.753-2.259l-.981-.558c-.112-.07-.23-.13-.351-.18Z"/><path fill="#E0E0E0" d="M96.687 98.361c.065-.41.086-.827.063-1.242v-3.411c-.081-2.871-.324-6.84-.612-11.214-.288-4.374-.486-8.334-.522-11.205v-3.393c.028-.418.01-.837-.054-1.251a5.68 5.68 0 0 0-.153 1.242c-.072.801-.117 1.962-.144 3.402-.054 2.88.072 6.858.369 11.241s.558 8.208.765 11.196c.09 1.35.153 2.484.216 3.393a4.66 4.66 0 0 0 .072 1.242Z"/><path fill="#E0E0E0" d="M59.274 97.785c.493.022.987-.002 1.476-.072.9-.081 2.313-.198 4.005-.288 3.384-.207 8.1-.333 13.23-.243 5.13.09 9.846.378 13.23.684 1.683.144 3.051.297 3.996.396.488.08.982.113 1.476.099a8.097 8.097 0 0 0-1.449-.306 64.68 64.68 0 0 0-3.987-.558c-3.384-.405-8.1-.756-13.257-.846a129.35 129.35 0 0 0-13.266.396c-1.692.144-3.06.315-3.996.459a7.93 7.93 0 0 0-1.458.279Zm60.084 38.16c.078-.154.136-.317.171-.486.108-.378.234-.846.396-1.413.342-1.233.783-3.033 1.296-5.256 1.044-4.455 2.286-10.647 3.6-17.496 1.314-6.849 2.457-13.059 3.402-17.523.468-2.169.855-3.96 1.134-5.283.126-.576.225-1.053.306-1.449a1.65 1.65 0 0 0 .063-.504c-.073.156-.13.319-.171.486-.108.378-.234.846-.396 1.413a172.035 172.035 0 0 0-1.296 5.256c-1.044 4.446-2.286 10.647-3.6 17.496-1.314 6.849-2.457 13.014-3.402 17.514-.468 2.169-.846 3.96-1.134 5.283l-.297 1.44c-.047.17-.071.346-.072.522ZM68.535 128.7c.166.058.338.097.513.117l1.476.225 5.4.792c4.599.666 10.935 1.665 17.937 2.772 7.002 1.107 13.356 2.052 18 2.619 2.304.288 4.167.504 5.463.621l1.476.054c.173.025.349.025.522 0a2.37 2.37 0 0 0-.513-.117l-1.476-.225-5.4-.792c-4.599-.666-10.935-1.665-17.937-2.772-7.002-1.107-13.356-2.052-18-2.628a265.415 265.415 0 0 0-5.472-.621l-1.467-.045a1.826 1.826 0 0 0-.522 0Z"/><path fill="#B2C2C2" d="M409.711 98.555s-9.189-4.5-16.947 17.1c-7.758 21.6-10.188 33.768-10.188 33.768s-2.187 4.59-5.463 2.187c-3.276-2.403-8.262-9.774-13.041-7.731-4.959 2.124-5.922 8.1-3.87 16.389 2.052 8.289 5.877 26.676 6.219 28.341.342 1.665-.306 4.176-2.799 2.898s-17.523-14.283-23.265-6.777c-5.742 7.506 3.771 29.7 4.77 32.157.999 2.457.63 3.6-.495 4.374-1.125.774-5.76-4.068-10.188-7.587-4.428-3.519-10.188-6.831-13.131-2.223-2.943 4.608-1.872 22.041 18.153 48.042l10.026 11.394 15.057-2.763c31.851-7.884 43.551-20.853 44.1-26.298.549-5.445-6.003-6.435-11.655-6.435-5.652 0-12.312.9-12.708-.405-.396-1.305.045-2.43 2.34-3.726 2.295-1.296 23.58-12.753 23.76-22.203.18-9.45-19.683-8.631-22.428-9.18-2.745-.549-1.665-2.934-.387-4.005 1.278-1.071 15.732-13.086 22.5-18.315 6.768-5.229 9.729-10.485 7.2-15.228-2.466-4.581-10.962-1.926-15.012-2.079-4.05-.153-2.916-5.112-2.916-5.112s5.688-11.043 13.05-32.769c7.362-21.726-2.907-23.895-2.907-23.895"/><path fill="#EBEBEB" d="M402.435 117.765s0 .162-.135.459c-.135.297-.243.774-.432 1.35-.387 1.188-.963 2.925-1.701 5.148-1.476 4.5-3.672 10.917-6.408 18.9-5.472 15.93-13.221 37.872-21.843 62.1s-16.416 46.089-21.978 61.992c-2.763 7.938-5.004 14.4-6.552 18.837l-1.8 5.121c-.207.567-.36 1.008-.477 1.323-.117.315-.171.45-.171.45s0-.162.126-.459c.126-.297.252-.774.432-1.35.396-1.197.972-2.925 1.701-5.148 1.485-4.5 3.672-10.917 6.417-18.9 5.472-15.93 13.212-37.872 21.843-62.1s16.425-46.125 21.978-62.028c2.763-7.938 4.995-14.4 6.552-18.837.774-2.205 1.368-3.933 1.8-5.121.207-.567.369-1.008.477-1.323.108-.315.171-.414.171-.414Z"/><path fill="#EBEBEB" d="M370.35 154.323c.214.3.386.627.513.972.306.639.72 1.584 1.215 2.7.99 2.331 2.277 5.58 3.6 9.198l3.438 9.27c.414 1.107.774 2.043 1.053 2.799.154.335.271.685.351 1.044a5.166 5.166 0 0 1-.522-.972 76.879 76.879 0 0 1-1.197-2.754c-.972-2.34-2.214-5.607-3.6-9.225-1.386-3.618-2.565-6.777-3.501-9.234l-1.071-2.799a5.675 5.675 0 0 1-.279-.999Zm11.628 26.118c-.054-.117 6.534-3.069 14.715-6.588 8.181-3.519 14.85-6.3 14.904-6.147.054.153-6.534 3.069-14.715 6.588-8.181 3.519-14.85 6.264-14.904 6.147Zm-14.931 36.576a5.696 5.696 0 0 1 1.107-.189l3.042-.378c2.556-.315 6.093-.774 9.972-1.422a245.59 245.59 0 0 0 9.9-1.863l2.997-.621a5.836 5.836 0 0 1 1.107-.18 4.48 4.48 0 0 1-1.062.36c-.702.198-1.71.468-2.97.765a135.29 135.29 0 0 1-9.9 2.007 143.877 143.877 0 0 1-10.026 1.287c-1.287.117-2.331.198-3.051.225-.37.045-.745.048-1.116.009Zm-15.714-21.312c.261.233.496.492.702.774l1.8 2.205c1.476 1.881 2.907 5.238 5.688 7.389a583.98 583.98 0 0 1 5.571 7.479l1.647 2.304c.221.275.405.578.549.9a4.718 4.718 0 0 1-.693-.774c-.486-.603-1.071-1.341-1.8-2.205a596.237 596.237 0 0 1-5.679-7.398 543.094 543.094 0 0 1-5.58-7.47l-1.638-2.322a4.391 4.391 0 0 1-.567-.882Zm-17.28 30.618c.327.308.628.642.9.999l2.277 2.817c1.899 2.394 4.5 5.724 7.362 9.414 2.862 3.69 5.4 7.056 7.245 9.504l2.16 2.916c.278.347.525.717.738 1.107a6.718 6.718 0 0 1-.9-.999l-2.277-2.781c-1.908-2.394-4.5-5.724-7.362-9.423s-5.4-7.047-7.254-9.495l-2.142-2.952a6.736 6.736 0 0 1-.747-1.107Zm20.349 25.974c.458-.127.924-.22 1.395-.279l3.834-.612c3.231-.522 7.695-1.26 12.6-2.214a404.755 404.755 0 0 0 12.519-2.646l3.789-.855c.456-.13.923-.217 1.395-.261-.439.179-.89.326-1.35.441-.9.252-2.169.603-3.753.999-3.177.81-7.596 1.845-12.51 2.79a244.101 244.101 0 0 1-12.6 2.079c-1.629.216-2.943.369-3.861.468a7.57 7.57 0 0 1-1.458.09Z"/><path fill="#E2E9E9" d="M425 399c0-13.846-90.891-24-202.991-24C109.909 375 19 384.231 19 399s90.881 24 203.019 24C334.156 423 425 411 425 399Z"/><path fill="#fff" d="M355.275 58.968H125.964v287.676h229.311V58.968Z"/><path fill="#263238" d="m126 58.968 229.311-.198h.189v288.099H125.748v-.207c.126-170.946.207-285.831.207-287.667 0 1.8.09 116.721.216 287.667l-.216-.207h229.311l-.234.234V59.049l.198.189-229.23-.27Z"/><path fill="#00BD78" d="M278.802 75.393a4.647 4.647 0 0 1 .333 3.6 8.171 8.171 0 0 1-1.935 3.186 14.4 14.4 0 0 1-6.462 3.6c-.594-2.61.846-5.4 1.665-6.714 1.287-2.133 4.923-5.202 6.39-3.672m-8.487 14.958a3.945 3.945 0 0 1 3.294-2.286 5.297 5.297 0 0 1 3.843 1.314 2.232 2.232 0 0 1 .9 1.62 1.721 1.721 0 0 1-.99 1.404 3.6 3.6 0 0 1-1.8.261c-2.061-.153-4.023-.666-5.265-2.313"/><path fill="#263238" d="M265.113 93.411a7.19 7.19 0 0 1 1.143-1.107c.444-.374.93-.694 1.449-.954a15.51 15.51 0 0 1 1.935-.9 7.91 7.91 0 0 1 3.825-.441 5.28 5.28 0 0 1 1.134.297c.139.043.27.11.387.198 0 0-.585-.198-1.548-.306a8.542 8.542 0 0 0-3.708.504 19.21 19.21 0 0 0-1.908.846c-.514.247-1 .549-1.449.9-.397.35-.818.671-1.26.963Z"/><path fill="#263238" d="M276.246 77.976a5.17 5.17 0 0 1-.414.702c-.279.432-.684 1.062-1.197 1.8a217.819 217.819 0 0 1-4.122 5.94 150.488 150.488 0 0 1-4.365 5.778 71.62 71.62 0 0 1-1.386 1.701 5.15 5.15 0 0 1-.54.594c.131-.234.284-.454.459-.657l1.314-1.8a290.507 290.507 0 0 0 4.293-5.814l4.212-5.814 1.278-1.8a4.57 4.57 0 0 1 .468-.63Z"/><path fill="#00BD78" d="M267.3 89.298a9.283 9.283 0 0 0-1.242-8.37c-.441-.603-1.116-1.206-1.8-1.026-.684.18-1.044 1.035-1.134 1.8a7.904 7.904 0 0 0 4.077 7.776"/><path fill="#263238" d="M265.5 83.034s.099.117.243.351c.144.234.324.576.54 1.017a10.45 10.45 0 0 1 1.017 3.663 6.642 6.642 0 0 1-.198 2.106 6.018 6.018 0 0 1-1.386 2.529 1.81 1.81 0 0 1-.297.297c-.045 0 .351-.495.819-1.332.264-.49.466-1.01.603-1.548.16-.662.217-1.345.171-2.025a11.774 11.774 0 0 0-.954-3.6 15.79 15.79 0 0 1-.558-1.458Z"/><path fill="#E0E0E0" d="M237.87 145.314a.555.555 0 0 1 .158-.394.545.545 0 0 1 .391-.164.549.549 0 0 1 .4.16.566.566 0 0 1 .167.398.569.569 0 0 1-.567.567.558.558 0 0 1-.549-.567Z"/><path fill="#5A6D65" d="M336.438 155.151c.372-.02.726-.169.999-.423.657-.513.378-1.728.432-3.15 0-2.898 0-7.2-.045-12.654v-5.508a4.837 4.837 0 0 0-.072-1.152 1.375 1.375 0 0 0-.729-.81 2.636 2.636 0 0 0-1.179-.126H298.44l-153.612.063a1.268 1.268 0 0 0-1.017.513 1.744 1.744 0 0 0-.243 1.206v20.736a1.222 1.222 0 0 0 .666.9c.169.089.358.135.549.135h58.95l69.057.054 46.557.072 12.654.045-12.654.045-46.557.072-69.057.054h-58.95a1.704 1.704 0 0 1-1.09-.4 1.704 1.704 0 0 1-.584-1.004c-.063-.531 0-.9 0-1.404V133.2a7.569 7.569 0 0 1 0-.738c.039-.268.144-.521.306-.738.16-.22.369-.4.612-.524a1.73 1.73 0 0 1 .783-.187l153.612.072h37.404a2.81 2.81 0 0 1 1.269.153 1.565 1.565 0 0 1 .837.9c.08.4.107.808.081 1.215v5.508c0 5.49 0 9.756-.045 12.654v1.917a1.559 1.559 0 0 1-.468 1.368 1.357 1.357 0 0 1-1.062.351Z"/><path fill="#263238" d="M185.931 172.8v.72h-.18a1.81 1.81 0 0 0-1.356.601 1.798 1.798 0 0 0-.444 1.415v2.772h-.738v-5.4h.702v1.062a2.061 2.061 0 0 1 2.016-1.17Zm6.237-2.169v7.686h-.702v-1.08a2.355 2.355 0 0 1-2.097 1.134 2.772 2.772 0 0 1 0-5.544 2.393 2.393 0 0 1 2.07 1.08v-3.276h.729Zm-.72 4.959a2.026 2.026 0 0 0-3.491-1.295 2.023 2.023 0 0 0 1.475 3.419 1.99 1.99 0 0 0 2.016-2.124Z"/><path fill="#E0E0E0" d="M165.177 197.73v3.159h-.729v-3.087a1.512 1.512 0 0 0-.398-1.265 1.516 1.516 0 0 0-1.24-.472 1.794 1.794 0 0 0-1.908 1.962v2.862h-.702v-5.445h.702v.999a2.29 2.29 0 0 1 2.07-1.044c.306-.021.613.026.898.138a2.07 2.07 0 0 1 1.219 1.288c.096.292.126.601.088.905Zm4.869 2.826c-.325.263-.734.4-1.152.387a1.443 1.443 0 0 1-1.518-.95 1.439 1.439 0 0 1-.075-.634v-3.294h-.972v-.621h.972v-1.197h.738v1.197h1.656v.621h-1.656v3.249a.885.885 0 0 0 .23.695.893.893 0 0 0 .67.295c.295.01.584-.089.81-.279l.297.531Zm5.877-2.169h-4.554a2.01 2.01 0 0 0 .675 1.396 2.033 2.033 0 0 0 1.467.503 2.13 2.13 0 0 0 1.665-.711l.414.477a2.878 2.878 0 0 1-4.423-.316 2.874 2.874 0 0 1-.536-1.574 2.616 2.616 0 0 1 2.7-2.763 2.591 2.591 0 0 1 2.637 2.763.459.459 0 0 0-.045.225Zm-4.554-.54h3.861a1.932 1.932 0 0 0-3.251-1.282 1.929 1.929 0 0 0-.61 1.282Zm8.811-2.448v.711H180a1.795 1.795 0 0 0-1.352.598 1.806 1.806 0 0 0-.448 1.409v2.781h-.729v-5.445h.702v1.062a2.059 2.059 0 0 1 2.007-1.116Z"/><path fill="#000" d="M336.438 210.213c.374-.021.728-.175.999-.432.657-.504.378-1.728.432-3.141 0-2.907 0-7.2-.045-12.663v-5.508a4.76 4.76 0 0 0-.072-1.143 1.424 1.424 0 0 0-.729-.819 2.756 2.756 0 0 0-1.179-.126H298.44l-153.612.072a1.23 1.23 0 0 0-1.017.513 1.739 1.739 0 0 0-.243 1.206v20.79a1.261 1.261 0 0 0 .666.9c.171.085.358.131.549.135H272.79l46.557.072-46.557.072-69.057.054h-58.95a1.713 1.713 0 0 1-1.674-1.395c-.063-.54 0-.9 0-1.413v-19.161a6.987 6.987 0 0 1 0-.738c.039-.271.144-.527.306-.747a1.708 1.708 0 0 1 1.395-.702l153.612.063h37.404c.429-.042.862.01 1.269.153a1.598 1.598 0 0 1 .837.954c.08.397.107.802.081 1.206v5.508c0 5.49 0 9.756-.045 12.663v1.908a1.55 1.55 0 0 1-.486 1.269 1.397 1.397 0 0 1-1.044.45Z"/><path fill="#263238" d="M336.438 306.792c.372-.02.726-.169.999-.423.657-.513.378-1.737.432-3.15 0-2.907 0-7.2-.045-12.663v-5.508a4.76 4.76 0 0 0-.072-1.143 1.424 1.424 0 0 0-.729-.819 2.758 2.758 0 0 0-1.179-.126H298.44l-153.612.072a1.268 1.268 0 0 0-1.017.513 1.739 1.739 0 0 0-.243 1.206v20.781a1.226 1.226 0 0 0 .666.9c.169.089.358.135.549.135h58.95l69.057.045 46.557.081h12.654l-12.654.045-46.557.072-69.057.054h-58.95a1.805 1.805 0 0 1-.756-.189 1.673 1.673 0 0 1-.9-1.215c-.063-.54 0-.9 0-1.413v-19.242a6.987 6.987 0 0 1 0-.738c.038-.271.144-.527.306-.747a1.708 1.708 0 0 1 1.395-.702l153.612.063h37.404c.429-.042.862.01 1.269.153a1.598 1.598 0 0 1 .837.954c.08.397.107.802.081 1.206v5.508c0 5.49 0 9.756-.045 12.663v1.908a1.535 1.535 0 0 1-.486 1.269 1.397 1.397 0 0 1-1.062.45Z"/><path fill="#00BD78" d="M327.951 238.248H153.288c-5.502 0-9.963 4.461-9.963 9.963v4.014c0 5.502 4.461 9.963 9.963 9.963h174.663c5.502 0 9.963-4.461 9.963-9.963v-4.014c0-5.502-4.461-9.963-9.963-9.963Z"/><path fill="#fff" d="M225.747 245.961h.765v6.588h4.059v.666h-4.824v-7.254Zm5.31 4.527a2.767 2.767 0 0 1 3.31-2.719 2.769 2.769 0 0 1 2.18 2.173 2.776 2.776 0 0 1-1.171 2.846c-.455.306-.99.47-1.538.472a2.708 2.708 0 0 1-1.988-.786 2.708 2.708 0 0 1-.793-1.986Zm4.797 0a2.026 2.026 0 0 0-3.491-1.295 2.023 2.023 0 0 0 .359 3.088c.331.217.72.332 1.116.331a1.99 1.99 0 0 0 2.016-2.124Zm7.29-2.727v4.788c0 1.872-.9 2.7-2.7 2.7a3.8 3.8 0 0 1-2.538-.837l.378-.558a3.202 3.202 0 0 0 2.142.747c1.377 0 2.007-.63 2.007-1.98v-.693a2.458 2.458 0 0 1-2.124 1.053c-.699 0-1.37-.278-1.865-.772a2.641 2.641 0 0 1 0-3.73 2.641 2.641 0 0 1 1.865-.772 2.445 2.445 0 0 1 2.151 1.089v-1.053l.684.018Zm-.72 2.592a2.072 2.072 0 0 0-3.506-1.561 2.068 2.068 0 0 0 .279 3.205c.342.23.745.354 1.157.354a1.944 1.944 0 0 0 2.07-1.998Zm5.319-4.311a.541.541 0 0 1 .922-.382.541.541 0 0 1-.764.764.541.541 0 0 1-.158-.382Zm.162 1.719h.738v5.454h-.738v-5.454Zm7.803 2.295v3.159h-.738v-3.087a1.53 1.53 0 0 0-1.638-1.746 1.801 1.801 0 0 0-1.908 1.971v2.862h-.729v-5.454h.702v1.008a2.276 2.276 0 0 1 2.07-1.044 2.08 2.08 0 0 1 1.673.634 2.09 2.09 0 0 1 .568 1.697Z"/><path fill="#E5EAE8" d="M148 117a2 2 0 0 1 2-2h77a2 2 0 0 1 2 2v4a2 2 0 0 1-2 2h-77a2 2 0 0 1-2-2v-4Z"/><path fill="#EBEFEE" d="M162 142a2 2 0 0 1 2-2h112a2 2 0 0 1 2 2v1a2 2 0 0 1-2 2H164a2 2 0 0 1-2-2v-1Z"/><path fill="#A9D1C2" d="M291 227a2 2 0 0 1 2-2h43a2 2 0 0 1 2 2v1a2 2 0 0 1-2 2h-43a2 2 0 0 1-2-2v-1Z"/><path fill="#E0E6E4" d="M150 174a2 2 0 0 1 2-2h62a2 2 0 0 1 2 2v4a2 2 0 0 1-2 2h-62a2 2 0 0 1-2-2v-4Z"/><path fill="#EBEFEE" d="M163 199a2 2 0 0 1 2-2h112a2 2 0 0 1 2 2v1a2 2 0 0 1-2 2H165a2 2 0 0 1-2-2v-1Z"/><path fill="#00BD78" d="m41.94 396.747-1.16 6.615.98.216c4.392.9 22.383 4.419 25.479 3.978 3.456-.495-9.702-5.67-9.702-5.67l.414-2.799-16.01-2.34Z"/><path fill="#fff" d="M46.61 404.1a5.605 5.605 0 0 0-1.52-3.735 5.404 5.404 0 0 0-3.6-1.746l-.702 4.5 5.823.981Z" opacity=".5"/><path fill="#fff" d="M63.9 404.649s4.563 2.124 3.852 2.817c-.711.693-19.035-2.142-27-4.104l.081-.351 21.33 3.492s.837-1.953 1.737-1.854Z" opacity=".5"/><path fill="#263238" d="M40.608 402.957a.974.974 0 0 0 .27.072l.783.171 2.898.576c2.448.477 5.84 1.08 9.594 1.665 3.753.585 7.2 1.035 9.657 1.332l2.934.333.8.081h.28l-.28-.054-.791-.108-2.925-.396a471.77 471.77 0 0 1-9.64-1.395c-3.752-.585-7.2-1.17-9.602-1.602l-2.907-.513-.792-.135-.28-.027Z"/><path fill="#263238" d="M62.145 406.746a7.03 7.03 0 0 1 .765-1.305c.35-.364.739-.687 1.16-.963a2.153 2.153 0 0 0-1.313.837c-.37.388-.586.896-.612 1.431Zm-4.356-3.132s.306-.207.603-.54c.297-.333.486-.63.45-.666-.036-.036-.315.207-.603.54-.288.333-.495.63-.45.666Zm-1.197-.891s.315-.081.63-.288c.315-.207.54-.405.513-.45-.027-.045-.306.081-.621.288-.315.207-.549.405-.522.45Zm-.702-2.754c.25.229.564.377.9.423.322.102.668.102.99 0a6.043 6.043 0 0 0-.9-.216 5.969 5.969 0 0 0-.99-.207Z"/><path fill="#263238" d="M58.545 402.3c.335.104.684.156 1.035.153a6.52 6.52 0 0 0 1.134-.072c.227-.03.45-.085.666-.162a.575.575 0 0 0 .306-.279.414.414 0 0 0-.09-.441 1.919 1.919 0 0 0-2.421.189c-.192.18-.345.398-.45.639-.063.171-.081.27-.063.279.151-.304.355-.578.603-.81a1.91 1.91 0 0 1 .972-.432 1.58 1.58 0 0 1 1.215.27c.144.144 0 .333-.153.405a2.815 2.815 0 0 1-.612.162 6.63 6.63 0 0 1-1.107.108c-.63-.009-1.026-.009-1.035-.009Z"/><path fill="#263238" d="M58.806 402.39s.207-.225.234-.693a1.718 1.718 0 0 0-.171-.801 1.046 1.046 0 0 0-.774-.657.4.4 0 0 0-.387.423c-.002.17.032.339.099.495.1.246.23.479.387.693.279.369.513.531.53.513.019-.018-.18-.216-.413-.585a3.815 3.815 0 0 1-.333-.693c-.108-.234-.144-.639.117-.648.26-.009.486.315.612.54.112.224.177.469.189.72a3.54 3.54 0 0 1-.09.693Zm-17.19-3.771s.459 0 1.179.225a5.242 5.242 0 0 1 2.421 1.467 5.312 5.312 0 0 1 1.26 2.538c.135.72.09 1.188.126 1.188.035-.104.053-.214.054-.324a4.795 4.795 0 0 0-.045-.9 5.013 5.013 0 0 0-1.251-2.646 5.097 5.097 0 0 0-2.538-1.467 4.26 4.26 0 0 0-.9-.108.902.902 0 0 0-.306.027Zm7.254 4.266a9.81 9.81 0 0 0 2.304.594c.78.162 1.58.22 2.376.171 0-.054-1.053-.153-2.34-.369s-2.322-.45-2.34-.396Z"/><path fill="#263238" d="M45.729 402.39c-.045 0 .054.234.117.495s.099.477.153.486c.054.009.126-.243 0-.54-.126-.297-.234-.477-.27-.441Zm-.954-1.656s0 .216.17.405c.172.189.289.324.334.297.045-.027 0-.216-.171-.414-.171-.198-.288-.324-.333-.288Zm-1.575-.936c0 .054.216.081.441.207s.369.27.414.243c.045-.027 0-.279-.324-.423-.324-.144-.531-.081-.531-.027Zm-1.179-.504s.054.144.18.216c.126.072.252.09.279.045.027-.045-.054-.144-.18-.216-.126-.072-.252-.099-.279-.045Z"/><path fill="#00BD78" d="m126.36 402.399.603 6.696 1.008-.045c4.5-.252 22.752-1.584 25.632-2.817 3.204-1.377-10.8-2.934-10.8-2.934l-.333-2.808-16.11 1.908Z"/><path fill="#fff" d="M132.795 408.321a5.635 5.635 0 0 0-2.439-3.213 5.483 5.483 0 0 0-3.906-.756l.504 4.5 5.841-.531Z" opacity=".5"/><path fill="#fff" d="M149.652 404.298s4.959.846 4.446 1.71c-.513.864-18.9 2.898-27.135 3.087v-.36l21.537-2.205s.216-2.088 1.152-2.232Z" opacity=".5"/><path fill="#263238" d="M126.693 408.753h.279l.801-.045 2.952-.198c2.484-.189 5.913-.486 9.702-.9 3.789-.414 7.2-.9 9.666-1.233L153 405.9l.792-.135a2.08 2.08 0 0 0 .27-.054h-.279l-.783.189-2.934.387c-2.466.324-5.886.756-9.666 1.17-3.78.414-7.2.738-9.693.963l-2.907.18-.801.072-.306.081Z"/><path fill="#263238" d="M148.5 406.8c.07-.5.2-.989.387-1.458.253-.443.555-.857.9-1.233a2.22 2.22 0 0 0-1.053 1.152 2.102 2.102 0 0 0-.234 1.539Zm-5.049-1.899c.045 0 .243-.279.441-.684.143-.229.232-.488.261-.756 0 0-.243.279-.441.675s-.315.738-.261.765Zm-1.386-.549c.045 0 .279-.162.531-.441s.414-.54.378-.576c-.036-.036-.279.162-.531.441s-.414.54-.378.576Zm-.99-1.431c.281.069.574.069.855 0 .286.004.569-.058.828-.18a1.805 1.805 0 0 0-.9 0 1.877 1.877 0 0 0-.783.18Zm-.405-1.044c.299.156.638.215.972.171.336.022.67-.063.954-.243a5.345 5.345 0 0 0-.963.045 5.165 5.165 0 0 0-.963.027Z"/><path fill="#263238" d="M143.838 403.425c.349.024.7-.016 1.035-.117.371-.087.733-.21 1.08-.369.213-.085.415-.194.603-.324a.58.58 0 0 0 .225-.351.44.44 0 0 0-.207-.405 1.924 1.924 0 0 0-2.286.819c-.142.22-.231.469-.261.729a.61.61 0 0 0 0 .288c.075-.319.202-.623.378-.9.199-.302.484-.537.819-.675a1.62 1.62 0 0 1 1.242-.054c.18.099.135.306 0 .432-.171.124-.355.23-.549.315a7.07 7.07 0 0 1-1.044.396c-.639.144-1.035.189-1.035.216Z"/><path fill="#263238" d="M144.117 403.452c.09-.238.09-.5 0-.738a1.57 1.57 0 0 0-.369-.72 1.024 1.024 0 0 0-.9-.432.424.424 0 0 0-.27.513c.046.162.126.312.234.441.16.215.348.409.558.576.182.166.401.287.639.351 0 0-.225-.162-.549-.459a3.633 3.633 0 0 1-.504-.576c-.171-.198-.306-.585-.054-.657.252-.072.549.171.729.36.167.184.293.402.369.639.059.23.098.465.117.702Zm-17.586.846s.459-.09 1.197-.09a5.08 5.08 0 0 1 4.599 2.898c.324.666.396 1.134.432 1.125.036-.009 0-.126 0-.333a3.808 3.808 0 0 0-.27-.846 4.936 4.936 0 0 0-4.725-2.979 3.79 3.79 0 0 0-.9.117 1.18 1.18 0 0 0-.333.108Zm8.118 2.223c.792.1 1.593.1 2.385 0a9.774 9.774 0 0 0 2.34-.45c0-.063-1.062.126-2.358.252s-2.367.135-2.367.198Z"/><path fill="#263238" d="M131.49 406.863c0 .045.108.216.243.441s.216.441.279.432c.063-.009.054-.261-.108-.531s-.387-.405-.414-.342Zm-1.359-1.35c0 .045.09.198.279.351.189.153.36.234.396.198.036-.036-.09-.198-.27-.351-.18-.153-.369-.243-.405-.198Zm-1.773-.513c0 .054.225 0 .477.081s.432.171.468.126c.036-.045-.126-.252-.432-.315s-.54.108-.513.108Zm-1.251-.162c0 .054.09.127.225.163.135.036.261 0 .279 0 .018 0-.09-.127-.225-.163-.135-.036-.27-.054-.279 0Zm3.951-256.338c-1.287-6.885-8.892-10.71-11.862-17.1-1.161-2.466-1.575-5.247-2.844-7.659a12.321 12.321 0 0 0-15.021-5.445l-.477.738c3.078 6.462 6.147 10.899 9.216 17.352a23.144 23.144 0 0 1 2.448 7.065c.279 2.493-.387 5.229-2.313 6.831-1.548 1.278-3.6 1.665-5.31 2.781a8.652 8.652 0 0 0-3.393 8.046 14.568 14.568 0 0 0 4.005 8.1c1.98 2.169 5.112 4.023 7.722 2.7 1.323-.684 2.142-2.016 3.114-3.141 1.998-2.295 4.752-3.753 7.2-5.553 4.698-3.411 8.586-8.982 7.515-14.715Z"/><path fill="#FFBE9D" d="M197.244 180.504c-1.728 1.575-11.133 9.477-11.133 9.477l-9.333-8.496c.243-.693 2.529-4.617 2.79-5.598a7.48 7.48 0 0 0 .234-2.601 11.927 11.927 0 0 0-.576-3.204c-.414-.9.504-1.854 1.296-1.404.792.45 1.98 2.952 1.944 6.174-.036 3.222 12.6-4.176 14.4-2.367l.378 8.019Z"/><path fill="#00BD78" d="m117 167.823 30.96 37.053 28.44-25.704 12.402 12.096s-35.685 39.267-41.13 38.988c-5.445-.279-23.94-12.51-23.94-12.51L117 167.823Z"/><path fill="#263238" d="M187.281 162.306a.507.507 0 0 0-.63.297l-8.451 21.222a.797.797 0 0 0 .405 1.026l9.99 4.77a.81.81 0 0 0 1.089-.414l9.459-21.996a.808.808 0 0 0-.477-1.08l-11.385-3.825Z"/><path fill="#F5F5F5" d="m187.011 163.836-7.74 18.936 10.467 4.743 7.929-20.079-10.656-3.6Z"/><path fill="#263238" d="M183.996 196.785a13.906 13.906 0 0 1-2.205-1.557 67.06 67.06 0 0 1-4.878-4.302 64.358 64.358 0 0 1-4.428-4.77 12.76 12.76 0 0 1-1.611-2.151 19.68 19.68 0 0 1 1.863 1.935c1.125 1.215 2.7 2.88 4.5 4.644 1.8 1.764 3.51 3.294 4.761 4.383a19.548 19.548 0 0 1 1.998 1.818Zm-8.901-13.995c.063.054-.324.36-.279 1.017a1.268 1.268 0 0 0 .459.9 1.167 1.167 0 0 0 1.649-.41c.104-.185.157-.395.151-.607a1.298 1.298 0 0 0-.567-.9 2.083 2.083 0 0 0-1.026-.27s.081-.108.297-.153c.306-.064.626-.017.9.135a1.553 1.553 0 0 1 .828 1.089 1.559 1.559 0 0 1-2.457 1.413 1.514 1.514 0 0 1-.531-1.26c.01-.312.127-.611.333-.846.108-.09.234-.126.243-.108Zm-28.341 32.913a4.676 4.676 0 0 1-.459-1.611 14.664 14.664 0 0 1 .9-7.929c.176-.535.45-1.033.81-1.467a32.367 32.367 0 0 0-1.341 5.4c-.13 1.868-.1 3.744.09 5.607Z"/><path fill="#263238" d="M151.2 215.415a4.707 4.707 0 0 1-.999-1.386 17.235 17.235 0 0 1-2.286-7.884 4.872 4.872 0 0 1 .099-1.71 47.01 47.01 0 0 0 1.017 5.661 45.887 45.887 0 0 0 2.169 5.319Z"/><path fill="#EBEBEB" d="m187.191 167.364-5.121 12.735 7.668 3.141 5.346-13.014-7.893-2.862Z"/><path fill="#00BD78" d="m189.343 179.92-4.534-1.895a.657.657 0 0 0-.86.353l-.086.208a.657.657 0 0 0 .352.859l4.534 1.895c.335.14.72-.018.86-.353l.087-.208a.657.657 0 0 0-.353-.859Z"/><path fill="#455A64" d="m193.445 171.588-5.685-2.141-.311.826 5.686 2.14.31-.825Z"/><path fill="#E0E0E0" d="m192.669 174.459-6.284-2.366-.612 1.626 6.284 2.365.612-1.625Zm-1.042 2.605-6.283-2.365-.612 1.625 6.283 2.366.612-1.626Z"/><path fill="#FFBE9D" d="M196.911 172.485c-1.449.234-3.213.378-4.662.621-.415.037-.815.17-1.17.387a.898.898 0 0 0-.279 1.107c.225.405.801.441 1.269.432l3.195-.108a16.898 16.898 0 0 0-4.023.675c-.594.198-1.26.603-1.278 1.233a1.178 1.178 0 0 0 1.062 1.062c.557.035 1.117.035 1.674 0 0 0 2.187 0 2.277.324-1.359 0-3.168.279-4.5.405-.378 0-.549.54-.639.9a.84.84 0 0 0 .036.544.842.842 0 0 0 .36.41c.174.058.358.077.54.054l5.292-.162"/><path fill="#00BD78" d="M106.056 165.6s6.435-.756 10.953 2.214c4.077 2.7 18.387 43.686 17.829 55.854-.558 12.168.999 33.624 3.501 42.462 2.502 8.838 4.392 85.5-15.3 122.022l-36.675-5.148 11.466-98.487-1.17-89.343 9.396-29.574Z"/><path fill="#000" d="M103.941 165.6s6.444-.756 10.962 2.214c4.077 2.7 18.378 43.686 17.829 55.854-.549 12.168.99 33.624 3.501 42.462 2.511 8.838 4.392 85.5-15.3 122.022l-33.525-5.148 8.316-98.487-1.224-89.334 9.441-29.583Z" opacity=".3"/><path fill="#455A64" d="M90.459 163.719s-20.169-2.169-14.778 26.658l5.184 30.33 32.931 19.926c4.446 1.197.666-20.7 7.362-30.834 2.511-3.789 2.7-6.624 2.511-8.37.639-6.615-4.662-10.737-5.4-17.424-.828-9.684-.792-15.048-5.004-16.137l-22.788-4.149"/><path fill="#263238" d="M118.638 181.701a8.847 8.847 0 0 0 0 4.248 17.103 17.103 0 0 0 1.8 4.302 37.364 37.364 0 0 1 2.574 5.202 16.57 16.57 0 0 1 .135 10.449 15.002 15.002 0 0 1-1.278 2.925c-.182.35-.405.676-.666.972a27.175 27.175 0 0 0 1.629-3.996 17.014 17.014 0 0 0-.261-10.188 40.448 40.448 0 0 0-2.511-5.157 16.328 16.328 0 0 1-1.71-4.437 8.021 8.021 0 0 1-.054-3.204c.055-.289.136-.572.243-.846.036-.171.081-.279.099-.27Z"/><path fill="#FFA475" d="M108.54 165.798c-.477-4.959-.9-10.188-.9-10.188s6.3-1.692 6.786-10.161c.477-8.1-1.962-22.14-1.962-22.14v-.711c-9.567-2.844-20.89-2.7-26.721 5.274l4.5 40.23c.53 4.671 4.959 7.947 9.954 7.344 5.103-.603 8.793-4.923 8.343-9.648Z"/><path fill="#263238" d="M112.5 133.524c.029.274-.048.549-.216.768-.167.22-.412.367-.684.411a1.033 1.033 0 0 1-.779-.175 1.014 1.014 0 0 1-.418-.68 1.076 1.076 0 0 1 .216-.768c.167-.22.412-.367.684-.411a1.033 1.033 0 0 1 .779.175 1.014 1.014 0 0 1 .418.68Zm0-1.179c-.126.153-.99-.36-2.142-.252-1.152.108-1.935.783-2.079.648-.144-.135 0-.315.387-.621a2.945 2.945 0 0 1 1.647-.693 2.811 2.811 0 0 1 1.719.378c.351.234.468.495.468.54Zm-11.988 2.736c.029.274-.048.549-.216.768a1.074 1.074 0 0 1-1.1.398 1.02 1.02 0 0 1-.653-.49 1.025 1.025 0 0 1-.128-.397 1.079 1.079 0 0 1 .9-1.179 1.026 1.026 0 0 1 1.197.9Zm-.009-1.134c-.117.153-.99-.369-2.133-.252-1.143.117-1.935.774-2.08.648-.143-.126.046-.324.388-.63a2.94 2.94 0 0 1 1.647-.684c.598-.063 1.2.066 1.719.369.378.243.522.477.459.549Zm5.022 8.118a7.667 7.667 0 0 1 1.8-.513c.288-.063.558-.153.585-.351a1.408 1.408 0 0 0-.279-.855l-1.089-2.151a39.488 39.488 0 0 1-2.529-5.661 38.217 38.217 0 0 1 2.979 5.445l1.053 2.169c.221.334.316.736.27 1.134a.734.734 0 0 1-.441.477 1.687 1.687 0 0 1-.495.117 6.969 6.969 0 0 1-1.854.189Z"/><path fill="#EB996E" d="M107.658 155.61a21.358 21.358 0 0 1-11.457-1.881s3.267 5.454 11.538 3.852l-.081-1.971Z"/><path fill="#00BD78" d="M105.3 144.9a2.085 2.085 0 0 0-1.935-.585 1.886 1.886 0 0 0-1.242.828 1.202 1.202 0 0 0 0 1.377 1.416 1.416 0 0 0 1.548.234 4.375 4.375 0 0 0 1.386-1.026c.121-.104.221-.229.297-.369a.4.4 0 0 0-.045-.432"/><path fill="#263238" d="M102.213 143.199c.189 0 .315 1.215 1.467 1.998 1.152.783 2.475.513 2.502.684.027.171-.27.279-.837.342a3.076 3.076 0 0 1-2.079-.495 2.782 2.782 0 0 1-1.152-1.692c-.099-.513.018-.837.099-.837ZM69.039 279.153l-12.79 52.704S41.005 394.965 40.5 396.63l-.476 1.962 21.483 1.62L98.73 283.149l-29.691-3.996Z"/><path fill="#263238" d="M107.712 316.152c3.474 16.803 16.2 87.3 16.2 87.3l21.789-2.241-12.393-89.919a29.52 29.52 0 0 0-1.422-6.894l-20.367-61.065-38.304-24.363c-.378 0-6.201 15.741-5.4 26.649a27.946 27.946 0 0 0 4.923 13.581c2.439 3.555 5.832 8.514 6.588 9.666 1.215 1.836 28.386 47.286 28.386 47.286Z"/><path fill="#00BD78" d="M64.143 240.138a123.095 123.095 0 0 0-2.592 11.52c-2.448 14.121-8.676 48.483-12.717 57.6-5.121 11.52-13.437 55.035-10.881 63 2.556 7.965 58.239 16.002 58.239 16.002s3.195-52.155 6.399-65.268 9.9-41.922 10.872-58.878c.972-16.956.639-46.395-4.797-64.629S90.72 162.09 90.72 162.09s-10.692 2.952-14.337 7.2c0 0-4.446 5.454-4.5 10.647-.054 5.193-2.466 29.88-4.077 44.226-.504 4.095-2.313 11.106-3.663 15.975Z"/><path fill="#263238" d="M113.517 263.25a.763.763 0 0 1 0-.261v-.765c0-.702-.081-1.683-.144-2.934a94.64 94.64 0 0 0-1.035-10.8 36.118 36.118 0 0 0-1.953-7.2 27.705 27.705 0 0 0-4.293-7.326c-1.845-2.367-4.032-4.662-6.156-7.2a43.137 43.137 0 0 1-3.051-4.014 23.161 23.161 0 0 1-2.367-4.635 15.13 15.13 0 0 1-.558-10.125 20.273 20.273 0 0 1 2.349-4.266 8.165 8.165 0 0 0 .9-2.07c.09-.35.117-.712.08-1.071a2.159 2.159 0 0 0-.36-.963 3.23 3.23 0 0 0-1.673-1.206c-.675-.252-1.386-.441-2.061-.756a4.005 4.005 0 0 1-1.683-1.404 5.01 5.01 0 0 1-.72-1.989 13.295 13.295 0 0 1 .099-3.933c.18-1.233.35-2.421.513-3.546.666-4.5 1.197-8.154 1.575-10.71.198-1.242.342-2.214.45-2.916l.135-.747a2.12 2.12 0 0 1 .054-.261.816.816 0 0 1 0 .261c0 .198 0 .45-.081.765-.09.702-.207 1.674-.37 2.916-.341 2.574-.827 6.228-1.421 10.737a969.455 969.455 0 0 1-.486 3.555 13.18 13.18 0 0 0-.081 3.816 4.64 4.64 0 0 0 .675 1.8c.379.558.91.995 1.53 1.26.62.288 1.323.468 2.034.729a3.671 3.671 0 0 1 1.89 1.368c.226.344.37.735.423 1.143.042.41.012.825-.09 1.224a8.003 8.003 0 0 1-.972 2.196 20.277 20.277 0 0 0-2.304 4.194 14.734 14.734 0 0 0 .567 9.81 28.543 28.543 0 0 0 5.328 8.514c2.106 2.52 4.293 4.824 6.147 7.2a28.352 28.352 0 0 1 4.293 7.56 35.965 35.965 0 0 1 1.917 7.254c.531 3.577.832 7.184.9 10.8 0 1.254.018 2.235.054 2.943v.765c-.045.198-.054.288-.054.288Zm-7.101 7.128s.045-.144.261-.288a1.503 1.503 0 0 1 1.053-.18 1.482 1.482 0 0 1 1.206 1.062 1.6 1.6 0 0 1-2.646 1.638 1.468 1.468 0 0 1-.396-1.557c.111-.354.348-.655.666-.846.225-.117.369-.117.378-.09a1.918 1.918 0 0 0-.72 1.026 1.12 1.12 0 0 0 .36 1.143 1.177 1.177 0 0 0 1.913-.446c.091-.244.099-.511.022-.76a1.14 1.14 0 0 0-.855-.846 2.078 2.078 0 0 0-1.242.144Zm-5.967 31.014s.054-.144.27-.279a1.447 1.447 0 0 1 1.053-.189 1.5 1.5 0 0 1 1.206 1.062 1.6 1.6 0 0 1-2.646 1.638 1.52 1.52 0 0 1 .261-2.394c.225-.126.378-.126.378-.099a2.037 2.037 0 0 0-.72 1.026 1.137 1.137 0 0 0 .369 1.143 1.28 1.28 0 0 0 1.431.144 1.288 1.288 0 0 0 .504-1.35 1.13 1.13 0 0 0-.9-.846 2.13 2.13 0 0 0-1.206.144Zm-.189-38.799a.986.986 0 0 1 0 .297c0 .228-.027.528-.081.9-.081.801-.207 1.935-.369 3.384-.342 2.943-.9 7.2-1.647 12.438-.396 2.619-.9 5.481-1.503 8.532a27.81 27.81 0 0 1-1.296 4.68c-.08.204-.173.402-.279.594a2.244 2.244 0 0 1-.45.513 4.73 4.73 0 0 1-1.116.72c-.799.364-1.63.65-2.484.855A59.022 59.022 0 0 1 80.1 296.73a112.89 112.89 0 0 1-11.808-.135l-.504-.063a.73.73 0 0 1-.54-.387 2.823 2.823 0 0 1-.279-1.026 13.186 13.186 0 0 1-.054-1.971c0-1.296.162-2.565.306-3.816.297-2.511.684-4.95 1.089-7.317.81-4.734 1.701-9.189 2.583-13.266v-.153h.207a126.91 126.91 0 0 0 21.303-3.699c2.529-.666 4.5-1.269 5.841-1.674l1.557-.477a4.02 4.02 0 0 1 .504-.144l-.135.054-.396.144c-.351.135-.828.315-1.494.54a125.6 125.6 0 0 1-5.814 1.8 120.389 120.389 0 0 1-21.366 3.852l.18-.162c-.9 4.077-1.737 8.532-2.538 13.257-.396 2.367-.774 4.806-1.062 7.299-.144 1.242-.27 2.511-.306 3.78-.032.633-.014 1.268.054 1.899.026.292.099.578.216.846.081.108.108.144.207.162l.477.054c3.913.254 7.836.302 11.754.144a58.339 58.339 0 0 0 10.8-1.197 12.91 12.91 0 0 0 2.412-.819 2.775 2.775 0 0 0 1.647-1.611c.564-1.49.998-3.025 1.296-4.59.648-3.033 1.134-5.895 1.548-8.505.837-5.229 1.404-9.468 1.8-12.402.198-1.449.351-2.583.459-3.384.054-.36.09-.657.126-.9.036-.243.09-.27.09-.27Z"/><path fill="#263238" d="M99.684 269.154a5.403 5.403 0 0 1-1.071.558c-.702.333-1.746.765-3.042 1.251a57.429 57.429 0 0 1-21.33 3.537c-1.395 0-2.52-.117-3.285-.207a6.533 6.533 0 0 1-1.197-.171c.4-.045.805-.045 1.206 0 .774 0 1.89.054 3.276.054a65.703 65.703 0 0 0 21.213-3.528 85.589 85.589 0 0 0 3.087-1.116 6.03 6.03 0 0 1 1.143-.378Z"/><path fill="#455A64" d="m49.176 243.774.08-.423c.064-.306.154-.711.27-1.242.262-1.098.64-2.7 1.117-4.734.99-4.104 2.493-10.026 4.446-17.316l3.23-11.916c1.17-4.284 2.404-8.865 3.87-13.644a110.473 110.473 0 0 1 5.554-14.661 67.81 67.81 0 0 1 3.987-7.281 26.322 26.322 0 0 1 2.493-3.465 10.568 10.568 0 0 1 3.393-2.7 5.86 5.86 0 0 1 4.356-.342 7.485 7.485 0 0 1 3.474 2.547c1.8 2.322 2.25 5.238 2.51 7.911.46 5.4.9 10.638 1.324 15.615.828 9.945 1.575 18.9 2.205 26.424.63 7.524 1.107 13.59 1.449 17.82.162 2.088.288 3.717.369 4.851 0 .54.063.954.09 1.26.008.144.008.288 0 .432 0 0 0-.144-.063-.423s-.072-.729-.126-1.26l-.46-4.842c-.377-4.23-.9-10.305-1.592-17.811-.693-7.506-1.44-16.479-2.313-26.415-.432-4.977-.9-10.197-1.35-15.606-.261-2.655-.711-5.49-2.412-7.668a7.034 7.034 0 0 0-3.25-2.385 5.334 5.334 0 0 0-4.004.315 10.226 10.226 0 0 0-3.25 2.61 25.373 25.373 0 0 0-2.447 3.375 67.65 67.65 0 0 0-3.97 7.2 111.223 111.223 0 0 0-5.552 14.589c-1.476 4.761-2.7 9.342-3.906 13.617s-2.286 8.262-3.285 11.898a1026.295 1026.295 0 0 0-4.59 17.28c-.522 2.034-.9 3.6-1.197 4.716-.144.522-.243.9-.324 1.224-.081.324-.126.45-.126.45Z"/><path fill="#263238" d="M46.97 240.669c-.35 1.404-6.893 38.637-6.893 38.637l48.68 1.575 6.706-38.61-48.492-1.602Z"/><path fill="#455A64" d="M94.959 243a2.92 2.92 0 0 1-.441.333c-.288.207-.738.495-1.314.9a86.086 86.086 0 0 1-4.959 2.979c-2.124 1.179-4.689 2.592-7.614 3.978-1.467.684-2.988 1.413-4.671 2.016a16.22 16.22 0 0 1-5.4.792 25.534 25.534 0 0 1-10.26-2.682 37.538 37.538 0 0 1-7.2-4.716 68.065 68.065 0 0 1-4.32-3.852c-.486-.477-.9-.855-1.116-1.116a3.108 3.108 0 0 1-.36-.414c.155.099.3.214.432.342.297.279.693.621 1.17 1.053 1.017.9 2.484 2.223 4.401 3.726a38.272 38.272 0 0 0 7.2 4.554 25.49 25.49 0 0 0 10.008 2.556 15.99 15.99 0 0 0 5.283-.756c1.62-.585 3.177-1.305 4.635-1.971 2.916-1.368 5.49-2.7 7.632-3.879a253.894 253.894 0 0 0 5.031-2.844l1.359-.792c.157-.092.327-.162.504-.207Z"/><path fill="#455A64" d="M91.98 244.638c.126 0-1.18 8.1-2.916 18.117-1.737 10.017-3.249 18.045-3.375 18.045-.126 0 1.179-8.1 2.916-18.108 1.737-10.008 3.249-18.072 3.375-18.054Zm-22.896 7.848c-.135 1.206-.261 2.421-.396 3.6a3.246 3.246 0 0 0 0 1.143 1.08 1.08 0 0 0 .756.801 1.074 1.074 0 0 0 1.08-.621 3.18 3.18 0 0 0 .261-1.305c.063-1.296.135-2.592.207-3.879h-1.584"/><path fill="#00BD78" d="M79.11 167.004c3.96-1.332 7.263 3.798 7.713 7.947.479 4.785.57 9.601.27 14.4-.711 14.184-7.128 27.747-7.128 27.747l40.716 6.102-1.494 15.66-51.489-5.526a12.204 12.204 0 0 1-10.377-15.714c4.599-15.003 12.114-36.576 13.779-40.149 2.304-4.815 2.565-8.649 8.01-10.467Z"/><path fill="#263238" d="M65.754 232.92h.27l.774.108 2.979.45c2.61.36 6.399.9 11.16 1.449 9.522 1.125 22.896 2.457 38.259 3.6l-.243.207c.477-4.977.981-10.233 1.494-15.633l.198.252-40.707-6.129h-.225l.072-.207c2.646-8.19 4.67-14.967 5.877-19.737a115.12 115.12 0 0 0 1.296-5.535l.297-1.458c.072-.324.117-.495.117-.495s0 .171-.054.504c-.054.333-.126.828-.252 1.476-.225 1.287-.621 3.168-1.197 5.562-1.143 4.788-3.114 11.592-5.724 19.8l-.162-.243 40.734 6.039h.216v.225c-.513 5.4-1.017 10.647-1.494 15.633v.225h-.216c-15.372-1.206-28.746-2.601-38.268-3.807a332.011 332.011 0 0 1-11.142-1.584l-3.033-.522-.765-.144-.261-.036Z"/><path fill="#263238" d="M111.168 238.158c.011-2.708.182-5.412.513-8.1.169-2.717.499-5.422.99-8.1a72.616 72.616 0 0 1-.522 8.1 71.364 71.364 0 0 1-.981 8.1Zm5.175-13.545s.108-.063.306 0c.286.063.538.234.702.477a1.17 1.17 0 0 1 .072 1.287 1.356 1.356 0 0 1-1.43.658 1.353 1.353 0 0 1-1.081-1.144 1.303 1.303 0 0 1 .423-1.206c.585-.495 1.098-.324 1.071-.279-.027.045-.441.072-.837.513a.974.974 0 0 0-.234.9 1.031 1.031 0 0 0 .747.774 1.01 1.01 0 0 0 .972-.432.9.9 0 0 0 0-.9c-.27-.549-.72-.576-.711-.648Z"/><path fill="#EBEBEB" d="m129.456 218.583 1.854 19.287h9.405l2.25-19.287h-13.509Z"/><path fill="#455A64" d="M129.456 216.09a4.03 4.03 0 0 0-.9 2.547h15.3a2.835 2.835 0 0 0-.9-2.547h-13.5Z"/><path fill="#455A64" d="m131.193 214.317-.513 1.908 11.529.09-.765-2.016-10.251.018Zm-1.935 9.09c0 .18 1.125 9.711 1.125 9.711h11.493l1.089-9.711h-13.707Z"/><path fill="#FFBE9D" d="m129.978 221.706-.297 3.231 11.124.261s0 3.753-1.125 4.878c0 0 1.125 2.25-.126 3.501s-1.998.9-1.998.9.504 2.502-.747 3.132c-1.251.63-17.478-.342-17.478-.342l.999-10.467 3.6-.315c.153-3.465 3.735-5.184 6.048-4.779Z"/><path fill="#263238" d="M115.893 123.39a8.271 8.271 0 0 0-3.537-4.5 6.21 6.21 0 0 0-3.771-.774v-.27c-1.206-2.169-3.6-2.637-6.066-2.223-2.466.414-4.896 2.214-7.092 3.384-2.97 1.584-5.805 3.393-8.65 5.202-2.357 1.503-4.77 3.069-6.398 5.337a11.105 11.105 0 0 0-1.863 8.37c.585 3.159 2.529 6.354 1.377 9.351-.774 1.989-2.7 3.24-4.014 4.95a8 8 0 0 0-.171 9.324c1.314 1.8 3.32 2.826 5.157 4.032 2.907 1.917 5.508 4.329 8.64 5.868 3.132 1.539 7.1 2.034 9.98.072 2.881-1.962 3.925-6.075 3.394-9.63-.531-3.555-2.241-6.795-3.6-10.116a55.998 55.998 0 0 1-3.7-13.5c-.26-1.854-.404-3.834.469-5.481.792-1.476 2.277-2.421 3.6-3.429a28.703 28.703 0 0 0 7.722-8.82 11.25 11.25 0 0 0 3.087 4.32 27.978 27.978 0 0 0 6.057 4.284 14.013 14.013 0 0 0-.621-5.751Z"/><path fill="#00BD78" d="M399.843 390.753c-.603-2.376.972-4.761 2.7-6.48 1.728-1.719 3.861-3.249 4.788-5.526 1.494-3.69-.459-8.496 2.07-11.565 1.494-1.8 4.149-2.394 5.472-4.329a10.055 10.055 0 0 0 1.206-3.465 35.18 35.18 0 0 1 8.847-16.326 30.51 30.51 0 0 1-3.528 15.768c-1.026 1.935-2.286 3.816-2.637 5.985-.567 3.51 1.368 7.146.486 10.593-1.008 3.942-5.454 6.561-5.688 10.62-.198 3.438 2.781 6.471 2.538 9.9a9.286 9.286 0 0 1-1.557 4.068c-2.7 4.401-6.597 7.425-12.519 7.29l-7.245.216 5.067-16.749Z"/><path fill="#000" d="M399.843 390.753c-.603-2.376.972-4.761 2.7-6.48 1.728-1.719 3.861-3.249 4.788-5.526 1.494-3.69-.459-8.496 2.07-11.565 1.494-1.8 4.149-2.394 5.472-4.329a10.055 10.055 0 0 0 1.206-3.465 35.18 35.18 0 0 1 8.847-16.326 30.51 30.51 0 0 1-3.528 15.768c-1.026 1.935-2.286 3.816-2.637 5.985-.567 3.51 1.368 7.146.486 10.593-1.008 3.942-5.454 6.561-5.688 10.62-.198 3.438 2.781 6.471 2.538 9.9a9.286 9.286 0 0 1-1.557 4.068c-2.7 4.401-6.597 7.425-12.519 7.29l-7.245.216 5.067-16.749Z" opacity=".3"/><path fill="#263238" d="M393.3 407.7a5.933 5.933 0 0 1-1.998-.054 12.6 12.6 0 0 1-2.349-.603 10.04 10.04 0 0 1-2.898-1.611 4.002 4.002 0 0 1-1.188-1.602 7.425 7.425 0 0 1-.333-2.169 20.813 20.813 0 0 0-.153-2.34 6.574 6.574 0 0 0-.9-2.34c-.846-1.503-2.259-2.934-2.7-4.977-.441-2.043-.117-4.176.225-6.345.342-2.169.693-4.545-.126-6.813s-2.34-4.32-3.123-6.885c-.783-2.565-.396-5.355-.54-8.1a10.84 10.84 0 0 0-.9-4.032c-.576-1.287-1.386-2.502-2.007-3.852-1.278-2.7-1.485-5.832-1.8-8.874-.162-1.521-.324-3.069-.495-4.626a23.06 23.06 0 0 0-.774-4.644 42.26 42.26 0 0 0-1.71-4.5 14.24 14.24 0 0 1-.828-2.349c-.135-.855-.171-1.656-.225-2.493a29.169 29.169 0 0 1 .225-5.013c.207-1.674.522-3.33.711-5.004v-.288l.045-.333.297.144a11.173 11.173 0 0 1 3.924 3.303c1 1.354 1.801 2.846 2.376 4.428a54.816 54.816 0 0 1 2.205 9.504 25.636 25.636 0 0 0 2.925 8.775c.783 1.296 1.737 2.484 2.574 3.744a10.387 10.387 0 0 1 1.8 4.14c.414 3.069-1.296 5.751-.954 8.469a9.51 9.51 0 0 0 1.296 3.771c.657 1.161 1.422 2.241 2.151 3.321a21.153 21.153 0 0 1 1.926 3.357c.509 1.138.813 2.357.9 3.6.171 2.448-.189 4.761 0 6.948a15.945 15.945 0 0 0 1.8 5.967c.9 1.8 1.8 3.402 2.637 4.977.405.783.783 1.548 1.089 2.313.288.741.496 1.51.621 2.295.202 1.37.202 2.761 0 4.131a10.374 10.374 0 0 1-2.097 5.265c-.177.229-.376.44-.594.63a2.88 2.88 0 0 1-.477.405c-.27.198-.414.288-.414.288a9.89 9.89 0 0 0 1.413-1.377 10.542 10.542 0 0 0 1.989-5.229c.171-1.355.15-2.728-.063-4.077a11.844 11.844 0 0 0-.63-2.241 25.11 25.11 0 0 0-1.098-2.286c-.81-1.557-1.8-3.168-2.7-4.968a16.37 16.37 0 0 1-1.8-6.066c-.171-2.241.171-4.563 0-6.948a10.332 10.332 0 0 0-.846-3.519 20.575 20.575 0 0 0-1.908-3.285c-.729-1.08-1.503-2.16-2.178-3.348a9.905 9.905 0 0 1-1.359-3.915c-.333-2.898 1.359-5.598.9-8.451a9.908 9.908 0 0 0-1.719-3.96c-.819-1.242-1.8-2.421-2.592-3.753a26.261 26.261 0 0 1-2.997-8.928c-.594-3.132-1.008-6.363-2.187-9.423a17.09 17.09 0 0 0-2.304-4.311 10.802 10.802 0 0 0-3.717-3.177l.333-.189v.297c-.189 1.692-.504 3.357-.702 5.004A28.503 28.503 0 0 0 369 328.5c.045.81.09 1.656.207 2.421.209.772.477 1.527.801 2.259a41.194 41.194 0 0 1 1.728 4.545c.427 1.54.689 3.121.783 4.716.162 1.557.333 3.105.486 4.635.333 3.051.54 6.093 1.8 8.739.603 1.314 1.413 2.529 2.007 3.861.565 1.321.871 2.739.9 4.176.144 2.799-.234 5.526.504 8.01s2.313 4.5 3.096 6.876c.783 2.376.477 4.815.117 6.975-.36 2.16-.729 4.302-.27 6.237.459 1.935 1.8 3.366 2.637 4.914a6.7 6.7 0 0 1 .9 2.421c.088.789.133 1.582.135 2.376a7.463 7.463 0 0 0 .297 2.106 3.856 3.856 0 0 0 1.116 1.53 9.9 9.9 0 0 0 2.826 1.62c.752.288 1.53.505 2.322.648.484.088.975.136 1.467.144l.441-.009Z"/><path fill="#263238" d="M370.926 322.2c.025.074.046.149.063.225l.162.648c.135.576.297 1.431.567 2.511.27 1.08.9 2.295 1.485 3.798a53.128 53.128 0 0 1 1.692 5.148c.54 1.935 1.017 4.086 1.521 6.381a26.652 26.652 0 0 0 2.277 7.092c.585 1.179 1.251 2.376 1.8 3.681.517 1.34.858 2.74 1.017 4.167a85.75 85.75 0 0 0 1.512 8.775L387 381.375c1.26 5.139 2.403 9.774 3.357 13.68.954 3.906 1.692 7.011 2.223 9.225.243 1.062.441 1.908.585 2.52l.135.657c.008.075.008.15 0 .225a.841.841 0 0 1-.081-.216l-.189-.648c-.162-.603-.378-1.44-.666-2.493-.567-2.205-1.368-5.337-2.367-9.189-.999-3.852-2.151-8.523-3.447-13.653-1.296-5.13-2.61-10.8-4.041-16.776a81.86 81.86 0 0 1-1.512-8.811 16.93 16.93 0 0 0-.981-4.059c-.504-1.278-1.161-2.466-1.746-3.654a27.136 27.136 0 0 1-2.268-7.2c-.486-2.313-.945-4.455-1.458-6.381a59.041 59.041 0 0 0-1.62-5.148c-.549-1.494-1.152-2.7-1.413-3.843-.261-1.143-.378-1.953-.495-2.538l-.108-.657a.872.872 0 0 1 .018-.216Z"/><path fill="#00BD78" d="M392.058 407.7c-4.725-2.844-6.03-11.394-4.023-16.524 2.007-5.13 5.481-9.801 6.048-15.3.432-4.203-.9-8.541.081-12.654 1.359-5.544 6.804-9.819 6.777-15.534 0-3.204-1.8-6.228-1.665-9.432.207-3.924 3.24-7.02 5.121-10.476 2.889-5.274 3.114-11.538 4.122-17.469 1.008-5.931 3.312-12.276 8.595-15.165.747 5.049 2.052 8.505 1.593 15.3-.162 2.448-3.033 7.128-3.456 12.501-.252 3.213-.423 6.426-.639 9.639-.216 3.213-.432 6.3-1.566 9.234-.9 2.241-2.268 4.266-2.916 6.579-1.233 4.347.324 9.081-.675 13.5-.837 3.735-3.447 6.93-3.996 10.728-.774 5.319 2.646 10.872.846 15.948-.9 2.511-2.97 4.5-3.6 7.128-.468 2.016 0 4.158-.414 6.183-.684 3.267-6.93 5.778-10.26 5.553"/><path fill="#263238" d="M415.8 300.159c.01.096.01.192 0 .288l-.108.828c-.117.729-.243 1.8-.495 3.177s-.999 2.952-1.584 4.833c-.585 1.881-1.224 4.041-1.8 6.471-.576 2.43-1.017 5.112-1.512 8.001a33.573 33.573 0 0 1-2.475 9c-.675 1.503-1.431 3.015-1.998 4.626a21.036 21.036 0 0 0-1.026 5.112 101.315 101.315 0 0 1-1.449 11.016c-1.494 7.461-2.916 14.562-4.203 21.033-1.287 6.471-2.592 12.249-3.6 17.1-1.008 4.851-1.89 8.784-2.475 11.538a238.036 238.036 0 0 1-.891 3.951 2.269 2.269 0 0 1-.081.27 1.086 1.086 0 0 1 0-.279c.045-.216.09-.486.153-.828l.612-3.15 2.331-11.574c1.008-4.887 2.196-10.701 3.528-17.154 1.332-6.453 2.7-13.572 4.167-21.024a105.084 105.084 0 0 0 1.449-10.98c.14-1.777.496-3.53 1.062-5.22.585-1.638 1.35-3.159 2.025-4.653a33.74 33.74 0 0 0 2.493-8.937c.504-2.88.99-5.571 1.566-8.001a67.171 67.171 0 0 1 1.845-6.48c.612-1.89 1.359-3.438 1.656-4.797.297-1.359.432-2.43.576-3.15.063-.342.117-.612.162-.819.045-.207.072-.198.072-.198Z"/><path fill="#475751" d="M266.582 94.625h1.594v.65c.363-.304.691-.515.984-.632.297-.121.6-.182.908-.182.633 0 1.17.22 1.612.662.371.375.556.93.556 1.664V101h-1.582v-2.795c0-.762-.035-1.267-.105-1.517-.067-.25-.186-.44-.358-.569a.98.98 0 0 0-.627-.2c-.324 0-.603.11-.837.329-.231.215-.391.514-.481.896-.047.2-.07.631-.07 1.295V101h-1.594v-6.375Zm-4.693-.165a3.36 3.36 0 0 1 1.693.452c.531.3.945.71 1.242 1.225a3.29 3.29 0 0 1 .446 1.67 3.33 3.33 0 0 1-.452 1.687 3.237 3.237 0 0 1-1.218 1.231 3.391 3.391 0 0 1-1.705.439 3.191 3.191 0 0 1-2.344-.973c-.645-.652-.967-1.443-.967-2.373 0-.996.365-1.826 1.096-2.49.64-.578 1.377-.867 2.209-.867Zm.023 1.507c-.496 0-.91.174-1.242.521-.328.344-.492.785-.492 1.325 0 .554.162 1.003.486 1.347.328.344.742.516 1.242.516s.916-.174 1.248-.522c.332-.347.498-.795.498-1.341 0-.547-.164-.99-.492-1.33-.324-.344-.74-.516-1.248-.516ZM256.639 92c.281 0 .521.102.72.305.203.203.305.449.305.738 0 .285-.1.53-.299.732a.974.974 0 0 1-.715.3.997.997 0 0 1-.732-.306 1.043 1.043 0 0 1-.299-.75c0-.28.1-.521.299-.72a.981.981 0 0 1 .721-.299Zm-.803 2.625h1.605V101h-1.605v-6.375Zm-7.125 0h1.857l1.248 1.74 1.266-1.74h1.84l-2.18 3.018 2.449 3.357h-1.857l-1.518-2.092-1.5 2.092h-1.834l2.414-3.357-2.185-3.018Zm-.727 3.65h-5.138c.074.453.271.815.592 1.084.324.266.736.399 1.236.399.597 0 1.111-.21 1.541-.627l1.347.633c-.335.476-.738.83-1.207 1.06-.468.227-1.025.34-1.669.34-1 0-1.815-.314-2.444-.943-.629-.633-.943-1.424-.943-2.373 0-.973.312-1.78.937-2.42.629-.645 1.416-.967 2.362-.967 1.004 0 1.82.322 2.449.967.629.64.943 1.488.943 2.543l-.006.304Zm-1.605-1.26a1.606 1.606 0 0 0-.627-.867 1.795 1.795 0 0 0-1.078-.334 1.91 1.91 0 0 0-1.172.376c-.211.156-.406.431-.586.826h3.463Zm-11.988-2.39h1.593v.65c.364-.304.692-.515.985-.632.297-.121.599-.182.908-.182.633 0 1.17.22 1.611.662.371.375.557.93.557 1.664V101h-1.582v-2.795c0-.762-.035-1.267-.106-1.517-.066-.25-.185-.44-.357-.569a.98.98 0 0 0-.627-.2c-.324 0-.603.11-.838.329-.23.215-.39.514-.48.896-.047.2-.071.631-.071 1.295V101h-1.593v-6.375Zm-7.207 0h1.593v.65c.364-.304.692-.515.985-.632.297-.121.599-.182.908-.182.633 0 1.17.22 1.611.662.371.375.557.93.557 1.664V101h-1.582v-2.795c0-.762-.035-1.267-.106-1.517-.066-.25-.185-.44-.357-.569a.98.98 0 0 0-.627-.2c-.324 0-.604.11-.838.329-.23.215-.39.514-.48.896-.047.2-.071.631-.071 1.295V101h-1.593v-6.375Zm-4.694-.165c.602 0 1.166.151 1.694.452.531.3.945.71 1.242 1.225.297.515.445 1.072.445 1.67 0 .601-.15 1.164-.451 1.687a3.232 3.232 0 0 1-1.219 1.231 3.389 3.389 0 0 1-1.705.439 3.194 3.194 0 0 1-2.344-.973c-.644-.652-.966-1.443-.966-2.373 0-.996.365-1.826 1.095-2.49.641-.578 1.377-.867 2.209-.867Zm.024 1.507c-.496 0-.91.174-1.243.521-.328.344-.492.785-.492 1.325 0 .554.162 1.003.487 1.347.328.344.742.516 1.242.516s.916-.174 1.248-.522c.332-.347.498-.795.498-1.341 0-.547-.164-.99-.492-1.33-.324-.344-.741-.516-1.248-.516Zm-4.465-.053-1.33.733c-.25-.262-.498-.444-.744-.545a2.207 2.207 0 0 0-.856-.153c-.598 0-1.082.18-1.453.54-.367.355-.551.812-.551 1.37 0 .543.178.987.533 1.33.356.344.823.516 1.401.516.715 0 1.271-.244 1.67-.732l1.26.861c-.684.887-1.649 1.33-2.895 1.33-1.121 0-2-.332-2.637-.996-.633-.664-.949-1.441-.949-2.332 0-.617.154-1.186.463-1.705.309-.52.738-.928 1.289-1.225a3.875 3.875 0 0 1 1.857-.445c.633 0 1.202.127 1.705.38.504.25.917.608 1.237 1.073Z"/></svg>