<svg xmlns="http://www.w3.org/2000/svg" width="79" height="24" fill="none"><path fill="#000" d="M6.776 11.676h11.132V17H.484V.06h6.292v11.616Zm21.49 5.566c-6.171 0-9.874-2.13-9.874-7.502s3.703-7.502 9.874-7.502c6.17 0 9.873 2.13 9.873 7.502s-3.702 7.502-9.873 7.502Zm0-4.84c2.589 0 4.065-.532 4.065-2.662s-1.476-2.662-4.065-2.662c-2.59 0-4.066.532-4.066 2.662s1.476 2.662 4.066 2.662ZM52.56 2.48h5.808v12.657c0 5.808-4.163 7.913-9.148 7.913-4.138 0-7.695-.774-9.075-1.137v-4.72c1.67.315 4.864 1.017 8.01 1.017 2.832 0 4.357-.678 4.405-4.356-1.258 1.525-3.316 2.42-6.244 2.42-4.477 0-7.695-2.13-7.695-7.018s3.218-7.018 7.695-7.018c2.928 0 4.986.895 6.244 2.42V2.48Zm-4.066 8.954c3.074 0 4.066-.532 4.066-2.178s-.992-2.178-4.066-2.178c-3.073 0-4.065.532-4.065 2.178s.992 2.178 4.065 2.178Zm20.466 5.808c-6.17 0-9.873-2.13-9.873-7.502s3.702-7.502 9.873-7.502c6.171 0 9.874 2.13 9.874 7.502s-3.703 7.502-9.874 7.502Zm0-4.84c2.59 0 4.066-.532 4.066-2.662S71.55 7.078 68.96 7.078s-4.065.532-4.065 2.662 1.476 2.662 4.065 2.662Z"/></svg>