<svg xmlns="http://www.w3.org/2000/svg" width="20" height="20" fill="none"><path fill="url(#a)" d="M9 15h2V9H9v6Zm1-8a.968.968 0 0 0 .713-.288A.964.964 0 0 0 11 6a.973.973 0 0 0-.288-.712A.965.965 0 0 0 10 5a.965.965 0 0 0-.712.288A.972.972 0 0 0 9 6c0 .283.095.52.288.713A.96.96 0 0 0 10 7Zm0 13a9.733 9.733 0 0 1-3.9-.788 10.114 10.114 0 0 1-3.175-2.137c-.9-.9-1.612-1.958-2.137-3.175A9.76 9.76 0 0 1 0 10c0-1.383.262-2.683.788-3.9a10.121 10.121 0 0 1 2.137-3.175A10.07 10.07 0 0 1 6.1.788 9.742 9.742 0 0 1 10 0c1.382 0 2.682.263 3.9.788a10.084 10.084 0 0 1 3.175 2.137c.899.9 1.611 1.958 2.138 3.175A9.68 9.68 0 0 1 20 10a9.806 9.806 0 0 1-.788 3.9 10.032 10.032 0 0 1-2.137 3.175 10.16 10.16 0 0 1-3.175 2.138A9.689 9.689 0 0 1 10 20Z"/><defs><linearGradient id="a" x1="20" x2="-2.416" y1="0" y2="3.229" gradientUnits="userSpaceOnUse"><stop stop-color="#04ACBB"/><stop offset="1" stop-color="#00BD78"/></linearGradient></defs></svg>