<svg xmlns="http://www.w3.org/2000/svg" width="16" height="13" fill="none"><path fill="url(#a)" d="M9.762 3.611H8.69v3.611l3.058 1.835.514-.874-2.5-1.502V3.61ZM9.405 0C7.7 0 6.065.685 4.859 1.904A6.537 6.537 0 0 0 2.976 6.5H.833l2.829 2.91L6.548 6.5H4.405c0-1.34.527-2.627 1.464-3.575a4.972 4.972 0 0 1 3.536-1.48 4.97 4.97 0 0 1 3.535 1.48A5.084 5.084 0 0 1 14.405 6.5c0 1.34-.527 2.627-1.465 3.575a4.972 4.972 0 0 1-3.535 1.48 4.933 4.933 0 0 1-3.529-1.487l-1.014 1.025a6.354 6.354 0 0 0 2.082 1.416 6.393 6.393 0 0 0 7.007-1.413A6.537 6.537 0 0 0 15.832 6.5a6.537 6.537 0 0 0-1.883-4.596A6.393 6.393 0 0 0 9.405 0Z"/><defs><linearGradient id="a" x1="15.833" x2="-.866" y1="0" y2="2.776" gradientUnits="userSpaceOnUse"><stop stop-color="#04ACBB"/><stop offset="1" stop-color="#00BD78"/></linearGradient></defs></svg>